<svg width="242" height="201" viewBox="0 0 242 201" fill="none" xmlns="http://www.w3.org/2000/svg">
<g filter="url(#filter0_d_85_419)">
<circle cx="111.5" cy="70.5" r="30.5" fill="white"/>
</g>
<path fill-rule="evenodd" clip-rule="evenodd" d="M113.757 75.8033L118.53 71.0303C118.823 70.7374 118.823 70.2625 118.53 69.9696L113.757 65.1967C113.464 64.9038 112.99 64.9038 112.697 65.1967C112.404 65.4896 112.404 65.9644 112.697 66.2573L116.189 69.75H105C104.586 69.75 104.25 70.0858 104.25 70.5C104.25 70.9142 104.586 71.25 105 71.25H116.189L112.697 74.7426C112.404 75.0355 112.404 75.5104 112.697 75.8033C112.99 76.0962 113.464 76.0962 113.757 75.8033Z" fill="#152137"/>
<circle cx="30.5" cy="70.5" r="30" fill="white" stroke="#DDEDF4"/>
<path fill-rule="evenodd" clip-rule="evenodd" d="M28.2426 75.8033L23.4697 71.0303C23.1768 70.7374 23.1768 70.2625 23.4697 69.9696L28.2426 65.1967C28.5355 64.9038 29.0104 64.9038 29.3033 65.1967C29.5962 65.4896 29.5962 65.9644 29.3033 66.2573L25.8107 69.75H37C37.4142 69.75 37.75 70.0858 37.75 70.5C37.75 70.9142 37.4142 71.25 37 71.25H25.8107L29.3033 74.7426C29.5962 75.0355 29.5962 75.5104 29.3033 75.8033C29.0104 76.0962 28.5355 76.0962 28.2426 75.8033Z" fill="#152137"/>
<defs>
<filter id="filter0_d_85_419" x="41" y="0" width="201" height="201" filterUnits="userSpaceOnUse" color-interpolation-filters="sRGB">
<feFlood flood-opacity="0" result="BackgroundImageFix"/>
<feColorMatrix in="SourceAlpha" type="matrix" values="0 0 0 0 0 0 0 0 0 0 0 0 0 0 0 0 0 0 127 0" result="hardAlpha"/>
<feOffset dx="30" dy="30"/>
<feGaussianBlur stdDeviation="35"/>
<feColorMatrix type="matrix" values="0 0 0 0 0.628618 0 0 0 0 0.625885 0 0 0 0 0.7625 0 0 0 0.25 0"/>
<feBlend mode="normal" in2="BackgroundImageFix" result="effect1_dropShadow_85_419"/>
<feBlend mode="normal" in="SourceGraphic" in2="effect1_dropShadow_85_419" result="shape"/>
</filter>
</defs>
</svg>
