<svg width="1260" height="984" viewBox="0 0 1260 984" fill="none" xmlns="http://www.w3.org/2000/svg">
<mask id="mask0_85_414" style="mask-type:alpha" maskUnits="userSpaceOnUse" x="0" y="0" width="1260" height="984">
<rect width="1260" height="984" rx="12" fill="#F4F6F6"/>
</mask>
<g mask="url(#mask0_85_414)">
<path fill-rule="evenodd" clip-rule="evenodd" d="M32.6746 249.349C133.011 249.349 214.349 168.011 214.349 67.6746C214.349 -32.6615 133.011 -114 32.6746 -114C-67.6615 -114 -149 -32.6615 -149 67.6746C-149 168.011 -67.6615 249.349 32.6746 249.349ZM32.6746 299.349C160.625 299.349 264.349 195.625 264.349 67.6746C264.349 -60.2757 160.625 -164 32.6746 -164C-95.2757 -164 -199 -60.2757 -199 67.6746C-199 195.625 -95.2757 299.349 32.6746 299.349Z" fill="#244D4D"/>
<path fill-rule="evenodd" clip-rule="evenodd" d="M18.885 170.77C80.1251 170.77 129.77 121.125 129.77 59.885C129.77 -1.35508 80.1251 -51 18.885 -51C-42.3551 -51 -92 -1.35508 -92 59.885C-92 121.125 -42.3551 170.77 18.885 170.77ZM18.885 220.77C107.739 220.77 179.77 148.739 179.77 59.885C179.77 -28.9693 107.739 -101 18.885 -101C-69.9693 -101 -142 -28.9693 -142 59.885C-142 148.739 -69.9693 220.77 18.885 220.77Z" fill="#244D4D"/>
</g>
</svg>
