<svg width="960" height="30" viewBox="0 0 960 30" fill="none" xmlns="http://www.w3.org/2000/svg">
<path d="M872.29 11.9735V23.6437H876.757V5.99463H870.576L866.98 15.739L863.356 5.99463H857.175V23.6437H861.614V11.9735L865.997 23.6437H867.963L872.29 11.9735Z" fill="#A1A6BA"/>
<path fill-rule="evenodd" clip-rule="evenodd" d="M885.578 22.3791V23.6726H889.596V15.6816C889.596 11.7149 886.787 10.5651 883.78 10.5651C881.87 10.5651 879.707 11.14 878.105 12.5485L879.566 15.3654C880.578 14.4743 881.814 13.9857 883.05 13.9857C884.651 13.9857 885.578 14.7331 885.578 15.8541V17.1188C884.82 16.1703 883.359 15.6241 881.701 15.6241C879.791 15.6241 877.403 16.6589 877.403 19.7633C877.403 22.609 879.791 23.96 881.701 23.96C883.303 23.96 884.792 23.3277 885.578 22.3791ZM885.578 19.2172V20.367C885.185 20.9706 884.23 21.2868 883.359 21.2868C882.319 21.2868 881.364 20.8269 881.364 19.8208C881.364 18.8148 882.319 18.3261 883.359 18.3261C884.23 18.3261 885.157 18.6136 885.578 19.2172Z" fill="#A1A6BA"/>
<path d="M889.849 21.9765L891.506 19.0734C892.434 19.9069 894.428 20.798 895.889 20.798C897.069 20.798 897.575 20.4531 897.575 19.9069C897.575 19.3442 896.656 19.1894 895.473 18.9899C893.333 18.6292 890.326 18.1225 890.326 14.7904C890.326 12.5484 892.237 10.5937 895.664 10.5937C897.8 10.5937 899.541 11.2836 900.89 12.2897L899.373 15.1641C898.614 14.4167 897.21 13.7556 895.692 13.7556C894.765 13.7556 894.147 14.1293 894.147 14.618C894.147 15.0991 894.993 15.2448 896.107 15.4367C898.254 15.8065 901.396 16.3476 901.396 19.792C901.396 22.2352 899.317 23.9599 895.749 23.9599C893.473 23.9599 891.169 23.1838 889.849 21.9765Z" fill="#A1A6BA"/>
<path d="M910.358 16.1989V23.6437H914.319V14.5605C914.319 12.2034 913.027 10.565 910.189 10.565C908.082 10.565 906.621 11.5423 905.863 12.4334V5.99463H901.873V23.615H905.863V15.3653C906.34 14.7904 907.127 14.1293 908.279 14.1293C909.543 14.1293 910.358 14.6467 910.358 16.1989Z" fill="#A1A6BA"/>
<path fill-rule="evenodd" clip-rule="evenodd" d="M923.057 22.3791C922.27 23.3277 920.781 23.96 919.18 23.96C917.269 23.96 914.881 22.609 914.881 19.7633C914.881 16.6589 917.269 15.6241 919.18 15.6241C920.837 15.6241 922.298 16.1703 923.057 17.1188V15.8541C923.057 14.7331 922.13 13.9857 920.528 13.9857C919.292 13.9857 918.056 14.4743 917.044 15.3654L915.583 12.5485C917.185 11.14 919.348 10.5651 921.259 10.5651C924.265 10.5651 927.074 11.7149 927.074 15.6816V23.6726H923.057V22.3791ZM923.057 20.367V19.2172C922.635 18.6136 921.708 18.3261 920.837 18.3261C919.798 18.3261 918.842 18.8148 918.842 19.8208C918.842 20.8269 919.798 21.2868 920.837 21.2868C921.736 21.2868 922.663 20.9706 923.057 20.367Z" fill="#A1A6BA"/>
<path fill-rule="evenodd" clip-rule="evenodd" d="M928.423 5.99463V23.6437H932.412V22.1778C933.452 23.4138 934.716 23.9886 936.121 23.9886C939.211 23.9886 941.627 21.6029 941.627 17.2625C941.627 13.0658 939.239 10.565 936.121 10.565C934.744 10.565 933.396 11.1111 932.412 12.3759V5.99463H928.423ZM937.525 17.2625C937.525 19.1883 936.345 20.3669 934.772 20.3669C933.929 20.3669 932.89 19.9069 932.384 19.2171V15.3366C932.89 14.6467 933.929 14.1581 934.772 14.1581C936.345 14.1581 937.525 15.3653 937.525 17.2625Z" fill="#A1A6BA"/>
<path d="M946.15 5.99463H942.161V23.6437H946.15V5.99463Z" fill="#A1A6BA"/>
<path fill-rule="evenodd" clip-rule="evenodd" d="M953.343 10.5362C949.438 10.5362 946.712 13.5256 946.712 17.2336C946.712 21.4016 949.662 23.9598 953.539 23.9598C955.45 23.9598 957.529 23.4137 958.765 22.2639L957.023 19.5907C956.293 20.2806 954.832 20.683 953.961 20.683C952.163 20.683 951.123 19.7344 950.842 18.5846H959.72V17.6648C959.72 13.3244 957.051 10.5362 953.343 10.5362ZM950.786 15.7964C950.927 14.8766 951.601 13.8131 953.343 13.8131C955.169 13.8131 955.815 14.9054 955.927 15.7964H950.786Z" fill="#A1A6BA"/>
<path fill-rule="evenodd" clip-rule="evenodd" d="M669.921 3.41995C668.755 3.41995 667.675 3.8037 666.807 4.44329V1.0606C666.807 0.477874 666.324 -0.00537109 665.741 -0.00537109C665.158 -0.00537109 664.675 0.477874 664.675 1.0606V8.66454C664.675 11.564 667.021 13.9091 669.921 13.9091C672.822 13.9091 675.167 11.564 675.167 8.66454C675.167 5.76509 672.822 3.41995 669.921 3.41995ZM669.921 11.8056C668.187 11.8056 666.779 10.3985 666.779 8.66454C666.779 6.93056 668.187 5.52348 669.921 5.52348C671.656 5.52348 673.063 6.93056 673.063 8.66454C673.063 10.3985 671.656 11.8056 669.921 11.8056Z" fill="#A1A6BA"/>
<path fill-rule="evenodd" clip-rule="evenodd" d="M750.677 2.26871C747.095 2.26871 744.18 5.18237 744.18 8.76404C744.18 12.3457 747.095 15.2594 750.677 15.2594C754.26 15.2594 757.175 12.3457 757.175 8.76404C757.175 5.16816 754.26 2.26871 750.677 2.26871ZM754.061 9.81579H751.744V12.1325C751.744 12.7152 751.26 13.1985 750.677 13.1985C750.094 13.1985 749.611 12.7152 749.611 12.1325V9.81579H747.294C746.711 9.81579 746.227 9.33256 746.227 8.74982C746.227 8.16709 746.711 7.68385 747.294 7.68385H749.611V5.36713C749.611 4.7844 750.094 4.30116 750.677 4.30116C751.26 4.30116 751.744 4.7844 751.744 5.36713V7.68385H754.061C754.644 7.68385 755.127 8.16709 755.127 8.74982C755.127 9.33256 754.644 9.81579 754.061 9.81579Z" fill="#A1A6BA"/>
<path d="M688.034 6.53265C688.034 4.54283 689.74 3.39159 691.191 3.39159H695.243C695.826 3.39159 696.295 3.8464 696.295 4.44335C696.295 5.13978 695.698 5.4951 695.243 5.4951H691.205C690.522 5.4951 690.153 6.04941 690.153 6.53265C690.153 7.0301 690.508 7.59862 691.205 7.59862H693.665C695.57 7.59862 696.821 9.19048 696.821 10.7397C696.821 12.3458 695.627 13.9234 693.665 13.9234H689.641C688.973 13.9234 688.575 13.3691 688.575 12.8574C688.575 12.3031 689.001 11.7915 689.627 11.7915H693.622C694.319 11.7915 694.66 11.1519 694.66 10.7539C694.66 10.3702 694.347 9.73057 693.622 9.73057H691.191C690.096 9.71636 688.034 8.84937 688.034 6.53265Z" fill="#A1A6BA"/>
<path d="M723.65 6.53265C723.65 4.54283 725.356 3.39159 726.806 3.39159H730.844C731.427 3.39159 731.896 3.8464 731.896 4.44335C731.896 5.13978 731.299 5.4951 730.844 5.4951H726.806C726.123 5.4951 725.754 6.04941 725.754 6.53265C725.754 7.0301 726.109 7.59862 726.806 7.59862H729.266C731.171 7.59862 732.422 9.19048 732.422 10.7397C732.422 12.3458 731.228 13.9234 729.266 13.9234H725.242C724.559 13.9234 724.176 13.3691 724.176 12.8574C724.176 12.3031 724.602 11.7915 725.228 11.7915H729.223C729.92 11.7915 730.261 11.1519 730.261 10.7539C730.261 10.3702 729.948 9.73057 729.223 9.73057H726.806C725.697 9.71636 723.65 8.84937 723.65 6.53265Z" fill="#A1A6BA"/>
<path d="M735.99 3.39159C734.54 3.39159 732.834 4.54283 732.834 6.53265C732.834 8.84937 734.882 9.71636 735.99 9.73057H738.422C739.147 9.73057 739.46 10.3702 739.46 10.7539C739.46 11.1519 739.118 11.7915 738.422 11.7915H734.427C733.801 11.7915 733.374 12.3031 733.374 12.8574C733.374 13.3691 733.758 13.9234 734.441 13.9234H738.464C740.426 13.9234 741.621 12.3458 741.621 10.7397C741.621 9.19048 740.37 7.59862 738.464 7.59862H735.99C735.294 7.59862 734.938 7.0301 734.938 6.53265C734.938 6.04941 735.308 5.4951 735.99 5.4951H740.028C740.483 5.4951 741.08 5.13978 741.08 4.44335C741.08 3.8464 740.611 3.39159 740.028 3.39159H735.99Z" fill="#A1A6BA"/>
<path d="M698.058 4.45756C698.058 3.87483 698.541 3.39159 699.124 3.39159C699.707 3.39159 700.19 3.87483 700.19 4.45756V12.8432C700.19 13.4259 699.707 13.9092 699.124 13.9092C698.541 13.9092 698.058 13.4259 698.058 12.8432V4.45756Z" fill="#A1A6BA"/>
<path fill-rule="evenodd" clip-rule="evenodd" d="M698.3 20.5181C699.167 19.8785 700.247 19.4948 701.413 19.4948C704.314 19.4948 706.66 21.8399 706.66 24.7394C706.66 27.6388 704.314 29.984 701.413 29.984C698.513 29.984 696.167 27.6388 696.167 24.7394V17.1354C696.167 16.5527 696.65 16.0695 697.233 16.0695C697.816 16.0695 698.3 16.5527 698.3 17.1354V20.5181ZM698.271 24.7394C698.271 26.4733 699.679 27.8804 701.413 27.8804C703.148 27.8804 704.541 26.4733 704.555 24.7394C704.555 23.0054 703.148 21.5983 701.413 21.5983C699.679 21.5983 698.271 23.0054 698.271 24.7394Z" fill="#A1A6BA"/>
<path d="M685.788 3.39159C685.205 3.39159 684.722 3.87483 684.722 4.45756L684.736 8.73566C684.693 10.427 683.314 11.7772 681.608 11.7772C679.902 11.7772 678.523 10.427 678.48 8.73566L678.494 4.45756C678.494 3.87483 678.011 3.39159 677.428 3.39159C676.845 3.39159 676.362 3.87483 676.362 4.45756V8.73566C676.404 11.5925 678.736 13.9092 681.608 13.9092C684.48 13.9092 686.812 11.6067 686.854 8.73566V4.45756C686.854 3.87483 686.371 3.39159 685.788 3.39159Z" fill="#A1A6BA"/>
<path d="M681.395 20.5324C681.395 19.9497 681.878 19.4664 682.461 19.4664C683.044 19.4664 683.527 19.9497 683.527 20.5324V24.8105C683.485 27.6815 681.153 29.984 678.281 29.984C676.575 29.984 675.054 29.1739 674.101 27.9089C673.149 29.1739 671.627 29.984 669.921 29.984C667.049 29.984 664.717 27.6815 664.675 24.8105V20.5324C664.675 19.9497 665.158 19.4664 665.741 19.4664C666.324 19.4664 666.807 19.9497 666.807 20.5324L666.793 24.8105C666.836 26.5018 668.215 27.8521 669.921 27.8521C671.599 27.8521 672.964 26.5302 673.035 24.8815V20.5324C673.035 19.9497 673.518 19.4664 674.101 19.4664C674.684 19.4664 675.167 19.9497 675.167 20.5324V24.8815C675.239 26.5302 676.603 27.8521 678.281 27.8521C679.987 27.8521 681.366 26.5018 681.409 24.8105L681.395 20.5324Z" fill="#A1A6BA"/>
<path d="M702.508 13.9092C703.091 13.9092 703.574 13.4259 703.574 12.8432L703.56 8.56511C703.603 6.87376 704.982 5.52353 706.688 5.52353C708.394 5.52353 709.773 6.87376 709.816 8.56511L709.802 12.8432C709.802 13.4259 710.285 13.9092 710.868 13.9092C711.451 13.9092 711.934 13.4259 711.934 12.8432V8.56511C711.892 5.7083 709.56 3.39159 706.688 3.39159C703.816 3.39159 701.484 5.69409 701.442 8.56511V12.8432C701.442 13.4259 701.911 13.9092 702.508 13.9092Z" fill="#A1A6BA"/>
<path d="M700.19 1.16012C700.19 1.74884 699.713 2.22609 699.124 2.22609C698.535 2.22609 698.058 1.74884 698.058 1.16012C698.058 0.571398 698.535 0.0941475 699.124 0.0941475C699.713 0.0941475 700.19 0.571398 700.19 1.16012Z" fill="#A1A6BA"/>
<path fill-rule="evenodd" clip-rule="evenodd" d="M722.754 9.73052C722.27 9.40362 721.602 9.53153 721.275 10.0148C721.275 10.0154 721.272 10.0195 721.266 10.0267C721.15 10.1811 719.951 11.7772 718.389 11.7772C717.92 11.7772 717.465 11.6635 717.053 11.4787L722.086 6.46153C722.498 6.04935 722.498 5.36713 722.086 4.95496L722.07 4.93904C721.758 4.62654 720.54 3.40574 718.375 3.40574C715.474 3.40574 713.129 5.75088 713.129 8.65034C713.129 11.5498 715.474 13.8949 718.375 13.8949C721.243 13.8949 722.888 11.4207 723.034 11.201L723.038 11.1945C723.379 10.7254 723.251 10.0574 722.754 9.73052ZM715.261 8.66454C715.261 6.94478 716.654 5.53769 718.389 5.53769C718.858 5.53769 719.313 5.63718 719.711 5.83616L715.56 9.97214C715.375 9.57418 715.261 9.13357 715.261 8.66454Z" fill="#A1A6BA"/>
<path fill-rule="evenodd" clip-rule="evenodd" d="M692.996 26.0896C693.323 25.6064 693.992 25.4784 694.475 25.8053C694.973 26.1322 695.101 26.8002 694.759 27.2693L694.755 27.2758C694.609 27.4957 692.964 29.9697 690.096 29.9697C687.196 29.9697 684.85 27.6246 684.85 24.7252C684.85 21.8257 687.196 19.4806 690.096 19.4806C692.261 19.4806 693.479 20.7014 693.791 21.0139L693.807 21.0298C694.219 21.442 694.219 22.1242 693.807 22.5364L688.774 27.5535C689.186 27.7383 689.641 27.852 690.11 27.852C691.672 27.852 692.871 26.2558 692.987 26.1015L692.993 26.0932C692.995 26.0911 692.996 26.0899 692.996 26.0896ZM690.11 21.6125C688.376 21.6125 686.982 23.0196 686.982 24.7394C686.982 25.2084 687.096 25.649 687.281 26.047L691.432 21.911C691.034 21.712 690.579 21.6125 690.11 21.6125Z" fill="#A1A6BA"/>
<path d="M714.636 22.9344C714.493 23.1334 714.294 23.304 714.053 23.4319C713.811 23.5598 713.527 23.6167 713.2 23.6167C712.915 23.6167 712.645 23.574 712.403 23.4745C712.162 23.375 711.948 23.2471 711.778 23.0623C711.607 22.8918 711.465 22.6786 711.366 22.437C711.266 22.1954 711.223 21.9253 711.223 21.6411C711.223 21.3426 711.28 21.0725 711.38 20.8309C711.479 20.5893 711.621 20.3761 711.806 20.2055C711.991 20.035 712.204 19.8928 712.446 19.8076C712.688 19.7081 712.958 19.6654 713.242 19.6654C713.37 19.6654 713.498 19.6797 713.626 19.7081C713.754 19.7365 713.882 19.7649 714.01 19.8218C714.124 19.8644 714.237 19.9355 714.337 20.0066C714.437 20.0776 714.522 20.1629 714.593 20.2624L714.181 20.5751C714.095 20.4472 713.953 20.3477 713.783 20.2624C713.612 20.1771 713.427 20.1345 713.242 20.1345C713.029 20.1345 712.83 20.1771 712.645 20.2482C712.475 20.3334 712.318 20.4329 712.19 20.5751C712.062 20.7172 711.977 20.8735 711.906 21.0583C711.835 21.2431 711.806 21.4421 711.806 21.6411C711.806 21.8542 711.835 22.0532 711.906 22.238C711.977 22.4228 712.062 22.5791 712.19 22.7212C712.318 22.8634 712.46 22.9628 712.631 23.0481C712.802 23.1334 713.001 23.1618 713.214 23.1618C713.427 23.1618 713.626 23.1192 713.797 23.0339C713.967 22.9486 714.11 22.8207 714.223 22.6644L714.636 22.9344Z" fill="#A1A6BA"/>
<path fill-rule="evenodd" clip-rule="evenodd" d="M717.536 22.7922C717.607 22.6217 717.636 22.4511 717.636 22.2521C717.636 22.0531 717.593 21.8684 717.536 21.712C717.465 21.5557 717.38 21.4136 717.252 21.2998C717.124 21.1862 716.981 21.1009 716.811 21.0298C716.64 20.9587 716.455 20.9303 716.271 20.9303C716.072 20.9303 715.901 20.9587 715.73 21.0298C715.574 21.0867 715.418 21.1862 715.304 21.2998C715.19 21.4136 715.091 21.5557 715.019 21.712C714.948 21.8826 714.92 22.0531 714.92 22.2521C714.92 22.4511 714.948 22.6359 715.019 22.7922C715.091 22.9628 715.19 23.1049 715.304 23.2186C715.418 23.3323 715.56 23.4176 715.73 23.4887C715.901 23.5597 716.086 23.5881 716.271 23.5881C716.47 23.5881 716.64 23.5597 716.811 23.4887C716.981 23.4318 717.124 23.3323 717.252 23.2186C717.365 23.0907 717.465 22.9486 717.536 22.7922ZM717.053 21.911C717.095 22.0105 717.109 22.1384 717.109 22.2521C717.109 22.3658 717.095 22.4795 717.053 22.5932C717.024 22.7069 716.967 22.8064 716.896 22.8917C716.825 22.977 716.726 23.0481 716.626 23.0907C716.527 23.1333 716.413 23.1617 716.271 23.1617C716.143 23.1617 716.015 23.1333 715.915 23.0907C715.801 23.0481 715.716 22.977 715.645 22.8917C715.574 22.8064 715.531 22.7069 715.489 22.5932C715.446 22.4937 715.432 22.3658 715.432 22.2521C715.432 22.1384 715.446 22.0247 715.489 21.911C715.517 21.8115 715.574 21.712 715.645 21.6268C715.716 21.5415 715.816 21.4704 715.915 21.4278C716.015 21.3851 716.128 21.3567 716.271 21.3567C716.399 21.3567 716.527 21.3851 716.626 21.4278C716.74 21.4704 716.825 21.5415 716.896 21.6268C716.967 21.712 717.01 21.7973 717.053 21.911Z" fill="#A1A6BA"/>
<path d="M719.114 21.0583C719.256 20.9588 719.427 20.9162 719.612 20.9162C719.782 20.9162 719.939 20.9588 720.067 21.0299C720.195 21.1009 720.308 21.2431 720.394 21.4136C720.479 21.2573 720.593 21.1294 720.749 21.0441C720.906 20.9588 721.062 20.9162 721.247 20.9162C721.403 20.9162 721.545 20.9446 721.673 21.0014C721.787 21.0583 721.887 21.1294 721.972 21.2288C722.043 21.3283 722.114 21.4278 722.142 21.5557C722.185 21.6837 722.199 21.8116 722.199 21.9537V23.5171H721.702V22.1243C721.702 22.0248 721.688 21.9253 721.673 21.8258C721.659 21.7405 721.631 21.6552 721.588 21.5842C721.545 21.5131 721.488 21.4563 721.417 21.4136C721.346 21.371 721.261 21.3568 721.147 21.3568C721.034 21.3568 720.934 21.3852 720.849 21.4278C720.763 21.4705 720.707 21.5415 720.65 21.6126C720.593 21.6837 720.564 21.7689 720.536 21.8684C720.507 21.9679 720.507 22.0674 720.507 22.1669V23.5313H720.01V22.0248C720.01 21.9253 719.996 21.84 719.981 21.7547C719.967 21.6695 719.939 21.5984 719.896 21.5415C719.853 21.4847 719.797 21.442 719.725 21.3994C719.654 21.371 719.569 21.3425 719.47 21.3425C719.285 21.3425 719.128 21.4136 719.015 21.57C718.887 21.7263 718.83 21.9253 718.83 22.1669V23.5029H718.332V21.2715C718.332 21.2198 718.328 21.1682 718.325 21.1185C718.324 21.1092 718.323 21.1 718.323 21.0908C718.321 21.0711 718.32 21.0517 718.319 21.0328C718.318 21.0172 718.318 21.002 718.318 20.9872H718.787C718.787 20.9944 718.787 21.002 718.788 21.01C718.788 21.0183 718.789 21.0271 718.789 21.0361C718.791 21.0509 718.792 21.0664 718.794 21.0823C718.797 21.1214 718.801 21.1629 718.801 21.2004V21.3994H718.816C718.872 21.2715 718.986 21.1578 719.114 21.0583Z" fill="#A1A6BA"/>
<path fill-rule="evenodd" clip-rule="evenodd" d="M723.052 24.7963H723.536V23.1618H723.55C723.65 23.304 723.778 23.4177 723.934 23.4887C724.09 23.5598 724.261 23.6024 724.446 23.6024C724.645 23.6024 724.815 23.574 724.972 23.5029C725.128 23.4319 725.256 23.3324 725.37 23.2187C725.484 23.0908 725.569 22.9486 725.626 22.7923C725.683 22.6217 725.711 22.4512 725.711 22.2664C725.711 22.0959 725.683 21.9111 725.626 21.7547C725.569 21.5842 725.484 21.4421 725.37 21.3284C725.256 21.2005 725.128 21.1152 724.972 21.0441C724.815 20.973 724.645 20.9446 724.46 20.9446C724.247 20.9446 724.062 20.9873 723.906 21.0725C723.749 21.1578 723.635 21.2715 723.55 21.3994H723.536V21.0015H723.052V24.7963ZM725.142 21.9111C725.185 22.0248 725.199 22.1385 725.199 22.2522C725.199 22.3659 725.185 22.4796 725.142 22.5791C725.114 22.6928 725.057 22.7923 724.986 22.8776C724.915 22.9628 724.815 23.0197 724.716 23.0766C724.602 23.1192 724.488 23.1476 724.346 23.1476C724.218 23.1476 724.09 23.1192 723.991 23.0766C723.891 23.0339 723.792 22.9628 723.721 22.8776C723.65 22.8065 723.593 22.707 723.55 22.5933C723.507 22.4938 723.493 22.3659 723.493 22.2522C723.493 22.1385 723.507 22.0248 723.55 21.9111C723.593 21.7974 723.65 21.6979 723.721 21.6126C723.792 21.5273 723.891 21.4563 723.991 21.4136C724.105 21.371 724.218 21.3426 724.346 21.3426C724.488 21.3426 724.616 21.371 724.716 21.4136C724.83 21.4563 724.915 21.5273 724.986 21.6126C725.057 21.6979 725.1 21.7974 725.142 21.9111Z" fill="#A1A6BA"/>
<path d="M726.405 21.1892C726.404 21.1653 726.402 21.1417 726.4 21.1185C726.397 21.0725 726.394 21.0282 726.394 20.9872H726.863C726.863 21.0128 726.866 21.0441 726.869 21.0785C726.871 21.1002 726.873 21.1232 726.874 21.1468L726.875 21.1546L726.876 21.1633C726.876 21.1802 726.877 21.1974 726.877 21.2146V21.4136H726.891C726.962 21.2715 727.062 21.1436 727.204 21.0583C727.346 20.973 727.488 20.9162 727.659 20.9162C727.73 20.9162 727.801 20.9304 727.858 20.9446L727.83 21.4136C727.758 21.3994 727.687 21.3852 727.602 21.3852C727.488 21.3852 727.375 21.4136 727.289 21.4563C727.204 21.4989 727.133 21.5557 727.062 21.641C727.005 21.7121 726.962 21.7974 726.934 21.8969C726.905 21.9963 726.891 22.0958 726.891 22.2095V23.5313H726.394V21.5557C726.422 21.4705 726.422 21.3852 726.408 21.2715C726.408 21.2566 726.407 21.2416 726.407 21.2268C726.406 21.2142 726.406 21.2017 726.405 21.1892Z" fill="#A1A6BA"/>
<path fill-rule="evenodd" clip-rule="evenodd" d="M730.702 22.7922C730.773 22.6217 730.801 22.4511 730.801 22.2521C730.801 22.0531 730.773 21.8684 730.702 21.712C730.63 21.5557 730.545 21.4136 730.417 21.2998C730.303 21.1862 730.161 21.1009 729.991 21.0298C729.82 20.9587 729.635 20.9303 729.45 20.9303C729.251 20.9303 729.081 20.9587 728.91 21.0298C728.754 21.0867 728.597 21.1862 728.484 21.2998C728.37 21.4136 728.27 21.5557 728.199 21.712C728.128 21.8826 728.1 22.0531 728.1 22.2521C728.1 22.4511 728.128 22.6359 728.199 22.7922C728.27 22.9628 728.37 23.1049 728.484 23.2186C728.597 23.3323 728.74 23.4176 728.91 23.4887C729.081 23.5597 729.266 23.5881 729.45 23.5881C729.649 23.5881 729.82 23.5597 729.991 23.4887C730.147 23.4318 730.289 23.3323 730.417 23.2186C730.531 23.0907 730.63 22.9486 730.702 22.7922ZM730.218 21.911C730.261 22.0105 730.275 22.1384 730.275 22.2521C730.275 22.3658 730.261 22.4795 730.218 22.5932C730.19 22.7069 730.133 22.8064 730.062 22.8917C729.991 22.977 729.891 23.0481 729.792 23.0907C729.692 23.1333 729.578 23.1617 729.436 23.1617C729.308 23.1617 729.18 23.1333 729.081 23.0907C728.967 23.0481 728.882 22.977 728.811 22.8917C728.749 22.8174 728.708 22.7215 728.671 22.6323L728.663 22.6134C728.66 22.6066 728.657 22.5999 728.654 22.5932C728.612 22.4937 728.597 22.3658 728.597 22.2521C728.597 22.1384 728.612 22.0247 728.654 21.911C728.683 21.8115 728.74 21.712 728.811 21.6268C728.882 21.5415 728.981 21.4704 729.081 21.4278C729.18 21.3851 729.294 21.3567 729.436 21.3567C729.564 21.3567 729.692 21.3851 729.792 21.4278C729.905 21.4704 729.991 21.5415 730.062 21.6268C730.133 21.712 730.175 21.7973 730.218 21.911Z" fill="#A1A6BA"/>
<path d="M732.294 21.0583C732.436 20.9588 732.607 20.9162 732.792 20.9162C732.962 20.9162 733.119 20.9588 733.246 21.0299C733.389 21.1009 733.488 21.2431 733.573 21.4136C733.659 21.2573 733.773 21.1294 733.929 21.0441C734.085 20.9588 734.242 20.9162 734.427 20.9162C734.583 20.9162 734.725 20.9446 734.853 21.0014C734.967 21.0583 735.066 21.1294 735.152 21.2288C735.223 21.3283 735.294 21.4278 735.322 21.5557C735.365 21.6837 735.379 21.8116 735.379 21.9537V23.5171H734.882V22.1243C734.882 22.0248 734.867 21.9253 734.853 21.8258C734.839 21.7405 734.81 21.6552 734.768 21.5842C734.725 21.5131 734.668 21.4563 734.597 21.4136C734.526 21.371 734.441 21.3568 734.327 21.3568C734.213 21.3568 734.114 21.3852 734.028 21.4278C733.943 21.4705 733.886 21.5415 733.829 21.6126C733.773 21.6837 733.744 21.7689 733.716 21.8684C733.687 21.9679 733.687 22.0674 733.687 22.1669V23.5313H733.19V22.0248C733.19 21.9253 733.175 21.84 733.161 21.7547C733.147 21.6695 733.119 21.5984 733.076 21.5415C733.033 21.4847 732.976 21.442 732.905 21.3994C732.834 21.371 732.749 21.3425 732.649 21.3425C732.465 21.3425 732.308 21.4136 732.194 21.57C732.066 21.7263 732.01 21.9253 732.01 22.1669V23.5029H731.498V21.2715C731.498 21.2198 731.494 21.1682 731.49 21.1185C731.487 21.0725 731.483 21.0282 731.483 20.9872H731.953C731.953 21.0141 731.956 21.0473 731.959 21.0823L731.959 21.0824C731.963 21.1215 731.967 21.163 731.967 21.2004V21.3994H731.981C732.052 21.2715 732.152 21.1578 732.294 21.0583Z" fill="#A1A6BA"/>
<path fill-rule="evenodd" clip-rule="evenodd" d="M738.578 22.2379C738.578 22.0247 738.55 21.8542 738.507 21.6836C738.45 21.5273 738.365 21.3851 738.265 21.2714C738.166 21.1577 738.038 21.0724 737.881 21.0156C737.739 20.9587 737.569 20.9303 737.384 20.9303C737.199 20.9303 737.028 20.9587 736.872 21.0298C736.716 21.0867 736.573 21.1862 736.46 21.2998C736.346 21.4136 736.261 21.5557 736.19 21.7262C736.118 21.8968 736.09 22.0674 736.09 22.2663C736.09 22.4653 736.118 22.6501 736.19 22.8064C736.246 22.9628 736.346 23.1049 736.46 23.2186C736.588 23.3323 736.73 23.4318 736.886 23.4887C737.043 23.5597 737.227 23.5881 737.412 23.5881C737.64 23.5881 737.839 23.5455 738.024 23.4602C738.194 23.3749 738.365 23.247 738.493 23.0623L738.137 22.778C738.066 22.8775 737.967 22.977 737.839 23.0481C737.711 23.1191 737.569 23.1617 737.398 23.1617C737.284 23.1617 737.185 23.1475 737.085 23.1049C736.986 23.0765 736.9 23.0196 736.829 22.9486C736.744 22.8775 736.687 22.8064 736.644 22.7069C736.602 22.6075 736.573 22.508 736.573 22.4085H738.578V22.2379ZM738.009 21.7404C738.052 21.8257 738.066 21.9252 738.066 22.0247H736.573C736.573 21.9252 736.602 21.8257 736.644 21.7404C736.687 21.6552 736.744 21.5841 736.815 21.513C736.886 21.442 736.957 21.3994 737.057 21.3567C737.142 21.3141 737.256 21.2998 737.355 21.2998C737.483 21.2998 737.583 21.3141 737.668 21.3567C737.753 21.3994 737.825 21.4562 737.881 21.513C737.938 21.5841 737.967 21.6552 738.009 21.7404Z" fill="#A1A6BA"/>
<path d="M740.498 21.3993H739.829V22.7069C739.829 22.8633 739.858 22.9627 739.915 23.0338C739.971 23.1049 740.057 23.1333 740.185 23.1333C740.227 23.1333 740.284 23.1333 740.327 23.1191C740.384 23.1049 740.426 23.0907 740.469 23.0765L740.483 23.4886C740.426 23.5171 740.355 23.5313 740.284 23.5455C740.213 23.5597 740.142 23.5597 740.057 23.5597C739.815 23.5597 739.63 23.4886 739.517 23.3607C739.389 23.2328 739.332 23.0338 739.332 22.7638V21.3993H738.848V20.9871H739.332V20.2623H739.829V20.9871H740.498V21.3993Z" fill="#A1A6BA"/>
<path d="M741.507 20.305C741.578 20.2482 741.606 20.1771 741.606 20.0776C741.606 19.9923 741.564 19.9213 741.507 19.836C741.436 19.7649 741.351 19.7365 741.265 19.7365C741.18 19.7365 741.095 19.7791 741.038 19.836C740.967 19.8929 740.938 19.9781 740.938 20.0634C740.938 20.1487 740.981 20.2198 741.038 20.2908C741.095 20.3619 741.18 20.3903 741.265 20.3903C741.365 20.3903 741.436 20.3619 741.507 20.305Z" fill="#A1A6BA"/>
<path d="M741.024 23.5172H741.521V21.0015H741.024V23.5172Z" fill="#A1A6BA"/>
<path fill-rule="evenodd" clip-rule="evenodd" d="M744.407 23.1192C744.308 23.2755 744.18 23.3892 744.009 23.4745C743.839 23.5598 743.668 23.5882 743.497 23.5882C743.298 23.5882 743.128 23.5598 742.971 23.4887C742.815 23.4176 742.687 23.3182 742.573 23.2044C742.46 23.0907 742.374 22.9486 742.317 22.7781C742.26 22.6217 742.232 22.4369 742.232 22.2522C742.232 22.0674 742.26 21.8969 742.317 21.7405C742.374 21.5842 742.46 21.442 742.573 21.3141C742.687 21.2004 742.815 21.1009 742.971 21.0299C743.128 20.9588 743.298 20.9304 743.483 20.9304C743.682 20.9304 743.867 20.973 744.023 21.0583C744.18 21.1436 744.294 21.2573 744.379 21.371H744.393V19.4949H744.891V23.5171H744.407V23.1192ZM742.744 22.2522C742.744 22.3659 742.758 22.4796 742.801 22.5933C742.829 22.707 742.886 22.8065 742.957 22.8918C743.028 22.977 743.114 23.0481 743.213 23.0907C743.313 23.1476 743.441 23.1618 743.569 23.1618C743.696 23.1618 743.81 23.1334 743.924 23.0907C744.023 23.0481 744.123 22.977 744.194 22.8918C744.265 22.8065 744.322 22.707 744.365 22.6075C744.407 22.4938 744.422 22.3801 744.422 22.2664C744.422 22.1527 744.407 22.0248 744.365 21.9253C744.322 21.8116 744.265 21.7121 744.194 21.6268C744.123 21.5415 744.023 21.4705 743.924 21.4278C743.824 21.3852 743.696 21.3568 743.569 21.3568C743.426 21.3568 743.313 21.3852 743.213 21.4278C743.114 21.4705 743.028 21.5415 742.957 21.6268C742.886 21.7121 742.829 21.8116 742.801 21.9253C742.758 22.0248 742.744 22.1385 742.744 22.2522Z" fill="#A1A6BA"/>
<path fill-rule="evenodd" clip-rule="evenodd" d="M748.232 22.7922C748.303 22.6217 748.331 22.4511 748.331 22.2521C748.331 22.0531 748.289 21.8684 748.232 21.712C748.161 21.5557 748.075 21.4136 747.948 21.2998C747.834 21.1862 747.692 21.1009 747.521 21.0298C747.35 20.9587 747.166 20.9303 746.981 20.9303C746.782 20.9303 746.611 20.9587 746.44 21.0298C746.284 21.0867 746.128 21.1862 746.014 21.2998C745.9 21.4136 745.801 21.5557 745.73 21.712C745.658 21.8826 745.63 22.0531 745.63 22.2521C745.63 22.4511 745.658 22.6359 745.73 22.7922C745.801 22.9628 745.9 23.1049 746.014 23.2186C746.128 23.3323 746.27 23.4176 746.44 23.4887C746.611 23.5597 746.796 23.5881 746.981 23.5881C747.18 23.5881 747.35 23.5597 747.521 23.4887C747.677 23.4318 747.82 23.3323 747.948 23.2186C748.061 23.0907 748.161 22.9486 748.232 22.7922ZM747.748 21.911C747.791 22.0105 747.805 22.1384 747.805 22.2521C747.805 22.3658 747.791 22.4795 747.748 22.5932C747.72 22.7069 747.663 22.8064 747.592 22.8917C747.521 22.977 747.421 23.0481 747.322 23.0907C747.222 23.1333 747.109 23.1617 746.966 23.1617C746.839 23.1617 746.711 23.1333 746.611 23.0907C746.497 23.0481 746.412 22.977 746.341 22.8917C746.27 22.8064 746.227 22.7069 746.185 22.5932C746.142 22.4937 746.128 22.3658 746.128 22.2521C746.128 22.1384 746.142 22.0247 746.185 21.911C746.213 21.8115 746.27 21.712 746.341 21.6268C746.412 21.5415 746.512 21.4704 746.611 21.4278C746.711 21.3851 746.824 21.3567 746.966 21.3567C747.094 21.3567 747.222 21.3851 747.322 21.4278C747.436 21.4704 747.521 21.5415 747.592 21.6268C747.663 21.712 747.706 21.7973 747.748 21.911Z" fill="#A1A6BA"/>
<path d="M750.379 21.6268C750.322 21.5415 750.237 21.4562 750.137 21.3994C750.038 21.3425 749.924 21.3141 749.796 21.3141C749.739 21.3141 749.682 21.3141 749.625 21.3283C749.568 21.3425 749.512 21.3567 749.469 21.3852C749.426 21.4136 749.384 21.442 749.369 21.4846C749.341 21.5273 749.327 21.5699 749.327 21.641C749.327 21.7405 749.369 21.8258 749.469 21.8826C749.568 21.9395 749.711 21.9821 749.895 22.0247C750.009 22.0532 750.123 22.0816 750.237 22.1242C750.336 22.1669 750.436 22.2095 750.507 22.2664C750.578 22.3232 750.649 22.3943 750.692 22.4796C750.734 22.5648 750.748 22.6501 750.748 22.7638C750.748 22.9059 750.72 23.0339 750.663 23.1476C750.606 23.2471 750.535 23.3323 750.436 23.4034C750.336 23.4745 750.237 23.5171 750.109 23.5455C749.995 23.574 749.867 23.5882 749.739 23.5882C749.554 23.5882 749.355 23.5455 749.185 23.4745C749 23.4034 748.843 23.2897 748.73 23.1334L749.085 22.8349C749.156 22.9344 749.241 23.0197 749.369 23.0907C749.483 23.1618 749.625 23.1902 749.767 23.1902C749.824 23.1902 749.895 23.1902 749.952 23.176C750.009 23.1618 750.066 23.1476 750.109 23.1191C750.151 23.0907 750.194 23.0481 750.222 23.0054C750.251 22.9628 750.265 22.9059 750.265 22.8349C750.265 22.7212 750.208 22.6359 750.094 22.5791C749.981 22.5222 749.824 22.4653 749.597 22.4227C749.554 22.4085 749.511 22.3978 749.469 22.3872C749.426 22.3765 749.384 22.3659 749.341 22.3516C749.256 22.3232 749.17 22.2806 749.099 22.2237C749.028 22.1669 748.971 22.11 748.929 22.0247C748.886 21.9395 748.857 21.84 748.857 21.7263C748.857 21.5984 748.886 21.4704 748.943 21.3852C749 21.2857 749.071 21.2146 749.156 21.1435C749.241 21.0867 749.341 21.0298 749.455 21.0014C749.568 20.973 749.682 20.9588 749.81 20.9588C749.995 20.9588 750.166 21.0014 750.336 21.0583C750.507 21.1293 750.635 21.2288 750.734 21.3709L750.379 21.6268Z" fill="#A1A6BA"/>
<path d="M712.901 26.6297C713.015 26.6724 713.086 26.7434 713.143 26.8287L713.512 26.4876C713.413 26.3455 713.271 26.246 713.1 26.1749C712.929 26.1181 712.745 26.0754 712.574 26.0754C712.375 26.0754 712.204 26.1181 712.034 26.1749C711.877 26.2318 711.721 26.3313 711.607 26.445C711.479 26.5729 711.394 26.715 711.323 26.8714C711.252 27.0277 711.223 27.2125 711.223 27.4115C711.223 27.6247 711.252 27.8094 711.323 27.9658C711.394 28.1221 711.493 28.2642 711.607 28.3779C711.721 28.4916 711.863 28.5911 712.034 28.648C712.204 28.7191 712.375 28.7475 712.574 28.7475C712.773 28.7475 712.958 28.7191 713.114 28.648C713.271 28.5911 713.413 28.4916 713.512 28.3637L713.171 28.0653C713.1 28.1505 713.015 28.2216 712.915 28.2642C712.802 28.3069 712.688 28.3353 712.56 28.3353C712.418 28.3353 712.304 28.3069 712.204 28.2642C712.105 28.2216 712.02 28.1505 711.948 28.0653C711.877 27.9942 711.835 27.8947 711.792 27.781C711.749 27.6815 711.735 27.5536 711.735 27.4399C711.735 27.3262 711.749 27.2125 711.792 27.0988C711.82 26.9993 711.877 26.8998 711.948 26.8145C712.02 26.7292 712.105 26.6582 712.204 26.6155C712.318 26.5729 712.432 26.5445 712.56 26.5445C712.688 26.5445 712.802 26.5729 712.901 26.6297Z" fill="#A1A6BA"/>
<path fill-rule="evenodd" clip-rule="evenodd" d="M716.555 27.4399C716.555 27.6388 716.527 27.8094 716.455 27.9799C716.384 28.1363 716.285 28.2784 716.171 28.4063C716.043 28.52 715.901 28.6195 715.73 28.6764C715.56 28.7475 715.389 28.7759 715.19 28.7759C715.005 28.7759 714.82 28.7475 714.65 28.6764C714.479 28.6053 714.337 28.52 714.223 28.4063C714.11 28.2926 714.01 28.1505 713.939 27.9799C713.868 27.8236 713.839 27.6388 713.839 27.4399C713.839 27.2409 713.868 27.0703 713.939 26.8998C714.01 26.7434 714.11 26.6013 714.223 26.4876C714.337 26.3739 714.493 26.2744 714.65 26.2175C714.82 26.1465 714.991 26.1181 715.19 26.1181C715.375 26.1181 715.56 26.1465 715.73 26.2175C715.901 26.2886 716.043 26.3739 716.171 26.4876C716.299 26.6013 716.384 26.7434 716.455 26.8998C716.527 27.0703 716.555 27.2409 716.555 27.4399ZM716.043 27.4399C716.043 27.3262 716.029 27.1982 715.986 27.0988C715.944 26.985 715.901 26.8998 715.83 26.8145C715.759 26.7292 715.673 26.6582 715.56 26.6155C715.46 26.5729 715.332 26.5444 715.204 26.5444C715.062 26.5444 714.948 26.5729 714.849 26.6155C714.749 26.6582 714.65 26.7292 714.579 26.8145C714.508 26.8998 714.451 26.9992 714.422 27.0988C714.38 27.2124 714.365 27.3262 714.365 27.4399C714.365 27.5536 714.38 27.6815 714.422 27.781C714.465 27.8947 714.508 27.9942 714.579 28.0794C714.65 28.1647 714.735 28.2358 714.849 28.2784C714.948 28.3211 715.076 28.3495 715.204 28.3495C715.346 28.3495 715.46 28.3211 715.56 28.2784C715.659 28.2358 715.759 28.1647 715.83 28.0794C715.901 27.9942 715.958 27.8947 715.986 27.781C716.015 27.6815 716.043 27.5678 716.043 27.4399Z" fill="#A1A6BA"/>
<path d="M717.713 26.2842C717.71 26.2491 717.707 26.216 717.707 26.1891V26.2175H717.252C717.252 26.2585 717.255 26.3028 717.258 26.3488C717.262 26.3985 717.266 26.4501 717.266 26.5018V28.7332H717.763V27.3972C717.763 27.1414 717.82 26.9424 717.948 26.7861C718.076 26.6297 718.233 26.5587 718.432 26.5587C718.545 26.5587 718.645 26.5729 718.716 26.6155C718.787 26.6582 718.844 26.715 718.887 26.7861C718.929 26.8571 718.958 26.9424 718.972 27.0277C718.986 27.1272 719 27.2267 719 27.3262V28.719H719.498V27.1556C719.498 27.0135 719.484 26.8856 719.441 26.7576C719.413 26.6297 719.342 26.516 719.271 26.4307C719.185 26.3312 719.086 26.2602 718.972 26.2033C718.844 26.1465 718.702 26.1181 718.545 26.1181C718.446 26.1181 718.361 26.1323 718.275 26.1607C718.19 26.1749 718.119 26.2175 718.048 26.2602C717.977 26.3028 717.92 26.3597 717.863 26.4165C717.806 26.4734 717.763 26.5302 717.735 26.6013H717.721V26.4023C717.721 26.3962 717.721 26.3899 717.721 26.3836C717.72 26.378 717.72 26.3724 717.72 26.3668C717.718 26.3395 717.716 26.3113 717.713 26.2842Z" fill="#A1A6BA"/>
<path d="M722.91 26.6013H722.242V27.9089C722.242 28.0653 722.27 28.1648 722.327 28.2358C722.384 28.3069 722.47 28.3353 722.597 28.3353C722.64 28.3353 722.697 28.3353 722.74 28.3211C722.761 28.3157 722.781 28.3104 722.799 28.305C722.829 28.2961 722.855 28.2873 722.882 28.2785L722.896 28.6906C722.839 28.7191 722.768 28.7333 722.697 28.7475C722.626 28.7617 722.555 28.7617 722.47 28.7617C722.228 28.7617 722.043 28.6906 721.929 28.5627C721.801 28.4348 721.744 28.2358 721.744 27.9658V26.6013H721.261V26.1892H721.744V25.4643H722.242V26.1892H722.91V26.6013Z" fill="#A1A6BA"/>
<path d="M725.193 28.6105C725.195 28.6285 725.196 28.6461 725.197 28.6625C725.198 28.6725 725.199 28.682 725.199 28.6911L725.199 28.6959L725.199 28.7002L725.199 28.7049V28.6906H725.64C725.64 28.6497 725.637 28.6054 725.633 28.5594C725.63 28.5097 725.626 28.4581 725.626 28.4064V26.175H725.128V27.511C725.128 27.7526 725.071 27.9516 724.943 28.1079C724.83 28.2643 724.659 28.3353 724.46 28.3353C724.346 28.3353 724.247 28.3211 724.176 28.2785C724.105 28.2358 724.048 28.179 724.005 28.1079C723.962 28.0369 723.934 27.9658 723.92 27.8663L723.92 27.8661C723.905 27.7667 723.891 27.6673 723.891 27.5678V26.175H723.394V27.7384C723.394 27.8805 723.408 28.0084 723.451 28.1364C723.493 28.2643 723.55 28.3638 723.621 28.4632C723.706 28.5627 723.806 28.6338 723.92 28.6906C724.048 28.7475 724.19 28.7759 724.346 28.7759C724.531 28.7759 724.687 28.7333 724.844 28.6338C725 28.5485 725.114 28.4206 725.171 28.2927H725.185V28.4917C725.185 28.5291 725.189 28.5706 725.193 28.6097L725.193 28.6098L725.193 28.6105Z" fill="#A1A6BA"/>
<path d="M728.313 26.1891C728.313 26.2013 728.314 26.2147 728.315 26.229C728.316 26.2464 728.318 26.265 728.319 26.2842C728.321 26.3022 728.323 26.3208 728.324 26.3392C728.326 26.3607 728.327 26.3821 728.327 26.4023V26.6013H728.341C728.37 26.5302 728.412 26.4734 728.469 26.4165C728.526 26.3597 728.583 26.3028 728.654 26.2602C728.725 26.2175 728.796 26.1749 728.882 26.1607C728.967 26.1323 729.052 26.1181 729.152 26.1181C729.308 26.1181 729.45 26.1465 729.578 26.2033C729.692 26.2602 729.792 26.3312 729.877 26.4307C729.948 26.516 730.019 26.6297 730.048 26.7576C730.09 26.8856 730.104 27.0135 730.104 27.1556V28.719H729.607V27.3262C729.607 27.2267 729.593 27.1272 729.578 27.0277C729.564 26.9424 729.536 26.8571 729.493 26.7861C729.45 26.715 729.394 26.6582 729.322 26.6155C729.251 26.5729 729.152 26.5587 729.038 26.5587C728.839 26.5587 728.683 26.6297 728.555 26.7861C728.427 26.9424 728.37 27.1414 728.37 27.3972V28.7332H727.872V26.5018C727.872 26.4501 727.868 26.3985 727.865 26.3488C727.861 26.3028 727.858 26.2585 727.858 26.2175H728.313V26.1891Z" fill="#A1A6BA"/>
<path fill-rule="evenodd" clip-rule="evenodd" d="M733.303 27.4256C733.303 27.2267 733.275 27.0419 733.218 26.8713C733.161 26.715 733.076 26.5729 732.976 26.4592C732.877 26.3455 732.749 26.2602 732.592 26.2033C732.45 26.1465 732.28 26.1181 732.095 26.1181C731.91 26.1181 731.739 26.1465 731.583 26.2175C731.427 26.2744 731.284 26.3739 731.171 26.4876C731.057 26.6013 730.972 26.7434 730.901 26.914C730.829 27.0845 730.801 27.2551 730.801 27.4541C730.801 27.6531 730.829 27.8378 730.901 27.9942C730.957 28.1505 731.057 28.2926 731.171 28.4063C731.299 28.52 731.441 28.6195 731.597 28.6764C731.754 28.7475 731.938 28.7759 732.123 28.7759C732.351 28.7759 732.55 28.7332 732.735 28.648C732.92 28.5627 733.09 28.4348 733.218 28.25L732.863 27.9657C732.792 28.0652 732.692 28.1647 732.564 28.2358C732.436 28.3069 732.294 28.3495 732.123 28.3495C732.01 28.3495 731.91 28.3353 731.811 28.2926C731.711 28.2642 731.626 28.2074 731.555 28.1363C731.469 28.0652 731.412 27.9942 731.37 27.8947C731.327 27.7952 731.299 27.6957 731.299 27.5962H733.303V27.4256ZM732.735 26.9424C732.777 27.0277 732.792 27.1272 732.792 27.2267H731.299C731.299 27.1272 731.327 27.0277 731.37 26.9424C731.412 26.8571 731.469 26.7718 731.54 26.715C731.611 26.6439 731.683 26.6013 731.782 26.5587C731.867 26.516 731.981 26.5018 732.081 26.5018C732.209 26.5018 732.308 26.516 732.393 26.5587C732.479 26.6013 732.55 26.6582 732.607 26.715C732.664 26.7861 732.706 26.8571 732.735 26.9424Z" fill="#A1A6BA"/>
<path fill-rule="evenodd" clip-rule="evenodd" d="M734.199 29.1312C734.313 29.2591 734.441 29.3586 734.611 29.4297C734.782 29.5007 734.953 29.5434 735.123 29.5434C735.294 29.5434 735.436 29.515 735.55 29.4723C735.663 29.4297 735.749 29.3586 735.82 29.2733C735.891 29.1881 735.934 29.0886 735.962 28.9749C735.99 28.8612 736.005 28.7332 736.005 28.6053V28.2784H735.99C735.905 28.4205 735.777 28.5343 735.607 28.6053C735.45 28.6764 735.28 28.719 735.095 28.719C734.91 28.719 734.725 28.6906 734.569 28.6195C734.412 28.5485 734.27 28.4632 734.171 28.3495C734.057 28.2358 733.972 28.0937 733.915 27.9373C733.858 27.781 733.829 27.6104 733.829 27.4256C733.829 27.2409 733.858 27.0703 733.915 26.914C733.972 26.7576 734.057 26.6155 734.171 26.5018C734.284 26.3881 734.412 26.2886 734.569 26.2175C734.725 26.1465 734.896 26.1181 735.095 26.1181C735.28 26.1181 735.45 26.1607 735.607 26.2318C735.777 26.3028 735.905 26.4307 736.005 26.5871H736.019V26.1891H736.502V28.5769C736.502 28.7617 736.474 28.9322 736.431 29.1028C736.389 29.2733 736.303 29.4155 736.204 29.5434C736.09 29.6713 735.948 29.7708 735.777 29.8561C735.607 29.9271 735.379 29.9698 735.123 29.9698C734.91 29.9698 734.682 29.9271 734.455 29.8561C734.227 29.7708 734.043 29.6571 733.886 29.515L734.199 29.1312ZM734.341 27.4256C734.341 27.5393 734.355 27.6531 734.398 27.7668C734.441 27.8805 734.483 27.9657 734.569 28.051C734.64 28.1363 734.725 28.1931 734.839 28.25C734.938 28.2926 735.066 28.3211 735.194 28.3211C735.322 28.3211 735.436 28.2926 735.55 28.25C735.663 28.2074 735.749 28.1363 735.82 28.0652C735.891 27.9799 735.948 27.8947 735.99 27.781C736.033 27.6673 736.047 27.5536 736.047 27.4256C736.047 27.3119 736.033 27.1982 735.99 27.0845C735.948 26.985 735.891 26.8856 735.82 26.8003C735.749 26.715 735.649 26.6582 735.55 26.6013C735.45 26.5587 735.322 26.5302 735.194 26.5302C735.066 26.5302 734.938 26.5587 734.839 26.6013C734.739 26.6439 734.654 26.715 734.569 26.7861C734.498 26.8713 734.441 26.9566 734.398 27.0703C734.37 27.184 734.341 27.2977 734.341 27.4256Z" fill="#A1A6BA"/>
<path fill-rule="evenodd" clip-rule="evenodd" d="M739.815 27.9799C739.886 27.8094 739.915 27.6388 739.915 27.4399C739.915 27.2409 739.886 27.0703 739.815 26.8998C739.744 26.7434 739.659 26.6013 739.531 26.4876C739.417 26.3739 739.275 26.2886 739.104 26.2175C738.934 26.1465 738.749 26.1181 738.564 26.1181C738.365 26.1181 738.194 26.1465 738.024 26.2175C737.867 26.2744 737.711 26.3739 737.597 26.4876C737.483 26.6013 737.384 26.7434 737.313 26.8998C737.242 27.0703 737.213 27.2409 737.213 27.4399C737.213 27.6388 737.242 27.8236 737.313 27.9799C737.384 28.1505 737.483 28.2926 737.597 28.4063C737.711 28.52 737.853 28.6053 738.024 28.6764C738.194 28.7475 738.379 28.7759 738.564 28.7759C738.763 28.7759 738.934 28.7475 739.104 28.6764C739.261 28.6195 739.403 28.52 739.531 28.4063C739.644 28.2784 739.744 28.1363 739.815 27.9799ZM739.346 27.0988C739.389 27.1982 739.403 27.3262 739.403 27.4399C739.403 27.5678 739.374 27.6815 739.346 27.781C739.317 27.8947 739.261 27.9942 739.189 28.0794C739.118 28.1647 739.019 28.2358 738.919 28.2784C738.82 28.3211 738.706 28.3495 738.564 28.3495C738.436 28.3495 738.308 28.3211 738.208 28.2784C738.095 28.2358 738.009 28.1647 737.938 28.0794C737.867 27.9942 737.825 27.8947 737.782 27.781C737.739 27.6815 737.725 27.5536 737.725 27.4399C737.725 27.3262 737.739 27.2124 737.782 27.0988C737.81 26.9992 737.867 26.8998 737.938 26.8145C738.009 26.7292 738.109 26.6582 738.208 26.6155C738.308 26.5729 738.422 26.5444 738.564 26.5444C738.692 26.5444 738.82 26.5729 738.919 26.6155C739.033 26.6582 739.118 26.7292 739.189 26.8145C739.261 26.8998 739.303 26.985 739.346 27.0988Z" fill="#A1A6BA"/>
<path d="M742.374 26.8287C742.317 26.7434 742.246 26.6724 742.133 26.6297C742.033 26.5729 741.919 26.5445 741.791 26.5445C741.663 26.5445 741.55 26.5729 741.436 26.6155C741.336 26.6582 741.251 26.7292 741.18 26.8145C741.109 26.8998 741.052 26.9993 741.024 27.0988C740.981 27.2125 740.967 27.3262 740.967 27.4399C740.967 27.5536 740.981 27.6815 741.024 27.781C741.066 27.8947 741.109 27.9942 741.18 28.0653C741.251 28.1505 741.336 28.2216 741.436 28.2642C741.535 28.3069 741.649 28.3353 741.791 28.3353C741.919 28.3353 742.033 28.3069 742.147 28.2642C742.246 28.2216 742.332 28.1505 742.403 28.0653L742.744 28.3637C742.644 28.4916 742.502 28.5911 742.346 28.648C742.189 28.7191 742.005 28.7475 741.806 28.7475C741.606 28.7475 741.436 28.7191 741.265 28.648C741.095 28.5911 740.952 28.4916 740.839 28.3779C740.725 28.2642 740.625 28.1221 740.554 27.9658C740.483 27.8094 740.455 27.6247 740.455 27.4115C740.455 27.2125 740.483 27.0277 740.554 26.8714C740.625 26.715 740.711 26.5729 740.839 26.445C740.952 26.3313 741.109 26.2318 741.265 26.1749C741.436 26.1181 741.606 26.0754 741.806 26.0754C741.976 26.0754 742.161 26.1181 742.332 26.1749C742.502 26.246 742.644 26.3455 742.744 26.4876L742.374 26.8287Z" fill="#A1A6BA"/>
<path d="M743.725 25.5069C743.796 25.4501 743.824 25.379 743.824 25.2795C743.824 25.18 743.796 25.109 743.725 25.0379C743.654 24.9668 743.568 24.9384 743.483 24.9384C743.398 24.9384 743.313 24.981 743.256 25.0379C743.185 25.0947 743.156 25.18 743.156 25.2653C743.156 25.3506 743.199 25.4216 743.256 25.4927C743.313 25.5638 743.398 25.5922 743.483 25.5922C743.583 25.5922 743.654 25.5638 743.725 25.5069Z" fill="#A1A6BA"/>
<path d="M743.241 28.7048H743.739V26.1892H743.241V28.7048Z" fill="#A1A6BA"/>
<path fill-rule="evenodd" clip-rule="evenodd" d="M747.166 27.4399C747.166 27.6388 747.137 27.8094 747.066 27.9799C746.995 28.1363 746.895 28.2784 746.782 28.4063C746.654 28.52 746.512 28.6195 746.355 28.6764C746.185 28.7475 746.014 28.7759 745.815 28.7759C745.63 28.7759 745.445 28.7475 745.275 28.6764C745.104 28.6053 744.962 28.52 744.848 28.4063C744.734 28.2926 744.635 28.1505 744.564 27.9799C744.493 27.8236 744.464 27.6388 744.464 27.4399C744.464 27.2409 744.493 27.0703 744.564 26.8998C744.635 26.7434 744.734 26.6013 744.848 26.4876C744.962 26.3739 745.118 26.2744 745.275 26.2175C745.445 26.1465 745.616 26.1181 745.815 26.1181C746 26.1181 746.185 26.1465 746.355 26.2175C746.526 26.2886 746.668 26.3739 746.782 26.4876C746.91 26.6013 746.995 26.7434 747.066 26.8998C747.137 27.0703 747.166 27.2409 747.166 27.4399ZM746.654 27.4399C746.654 27.3262 746.64 27.1982 746.597 27.0988C746.554 26.985 746.512 26.8998 746.44 26.8145C746.369 26.7292 746.284 26.6582 746.17 26.6155C746.071 26.5729 745.943 26.5444 745.815 26.5444C745.673 26.5444 745.559 26.5729 745.459 26.6155C745.36 26.6582 745.26 26.7292 745.189 26.8145C745.118 26.8998 745.061 26.9992 745.033 27.0988C744.99 27.2124 744.976 27.3262 744.976 27.4399C744.976 27.5536 744.99 27.6815 745.033 27.781C745.076 27.8947 745.118 27.9942 745.189 28.0794C745.26 28.1647 745.346 28.2358 745.459 28.2784C745.559 28.3211 745.687 28.3495 745.815 28.3495C745.957 28.3495 746.071 28.3211 746.17 28.2784C746.27 28.2358 746.369 28.1647 746.44 28.0794C746.512 27.9942 746.568 27.8947 746.597 27.781C746.625 27.6815 746.654 27.5678 746.654 27.4399Z" fill="#A1A6BA"/>
<path d="M748.317 28.6338C748.388 28.5628 748.417 28.4917 748.417 28.3922C748.417 28.2927 748.388 28.2074 748.317 28.1506C748.246 28.0795 748.161 28.0511 748.061 28.0511C747.962 28.0511 747.876 28.0795 747.805 28.1506C747.734 28.2074 747.706 28.2927 747.706 28.3922C747.706 28.4775 747.734 28.5628 747.805 28.6338C747.876 28.7049 747.962 28.7333 748.061 28.7333C748.161 28.7333 748.246 28.7049 748.317 28.6338Z" fill="#A1A6BA"/>
<path fill-rule="evenodd" clip-rule="evenodd" d="M458.648 9.37675V5.54239L458.58 5.47392H444.539V5.61086C445.018 5.67933 446.251 6.63792 446.251 8.14428V21.5645C446.251 24.0979 444.95 24.3718 444.402 24.6457C444.265 24.6457 444.265 24.7826 444.402 24.7826H451.456C451.525 24.7826 451.525 24.6457 451.456 24.6457C450.292 24.0294 449.333 23.6871 449.333 21.496V15.1283H454.196C455.36 15.1283 456.593 16.4292 457.073 17.4563H457.21V11.3624H457.073C456.867 12.5264 455.429 13.6904 454.196 13.6904H449.402V6.98028H454.95C456.593 6.98028 458.1 8.28122 458.511 9.44522C458.511 9.51369 458.648 9.51369 458.648 9.37675ZM494.059 22.3177L490.155 15.6076C490.703 15.4706 491.319 15.1967 492.004 14.8544C495.429 12.8003 494.813 8.48663 493.032 7.04875C491.73 6.02169 490.977 5.54239 488.443 5.47392H478.854V5.54239C480.292 6.02169 480.84 6.63792 480.908 8.0758V21.5645C480.908 24.0979 479.744 24.0294 478.922 24.6457V24.8511H485.771V24.7142C484.333 24.0294 483.922 23.6186 483.922 21.5645V15.9499H487.141L491.867 24.8511H496.525V24.5087C495.703 24.3718 495.223 24.2349 494.059 22.3177ZM487.278 14.512H483.854V6.84333H487.689C492.073 6.84333 492.484 14.512 487.278 14.512ZM543.374 5.61086C544.744 6.29557 545.223 6.70639 545.223 8.76051V18.6887L534.607 5.47392H530.223V5.61086C531.593 6.29557 532.073 6.70639 532.073 8.76051H532.004V20.7429C532.004 23.2763 531.045 24.0294 530.223 24.6457V24.8511H535.703V24.7142C534.265 24.0294 533.648 23.4132 533.648 21.2222V9.65063L545.977 24.8511H546.799V8.76051C546.799 6.2271 547.826 6.2271 548.648 5.67933V5.47392H543.511V5.61086H543.374ZM524.059 5.61086C525.429 6.29557 525.908 6.70639 525.908 8.76051V19.5789C525.908 21.633 524.607 23.5502 521.319 23.5502C517.689 23.5502 516.388 21.2222 516.388 19.5104V8.76051C516.388 6.2271 517.347 6.2271 518.169 5.67933V5.47392H511.388V5.61086C512.758 6.29557 513.237 6.70639 513.237 8.76051V18.9626C513.237 21.0167 514.333 24.988 521.319 24.988C526.456 24.988 527.758 21.5645 527.758 18.8942L527.689 8.69204C527.689 6.15863 528.717 6.15863 529.539 5.61086V5.47392H524.128V5.61086H524.059ZM564.539 19.9897C563.854 22.1807 561.662 23.4132 558.511 23.4132C554.95 23.4132 554.402 22.3177 554.265 21.496V15.2652H558.648C561.182 15.2652 561.456 16.2923 562.073 17.1139H562.21V12.0471H562.073C561.388 13.348 560.771 13.8273 558.922 13.8958H554.333V6.77486H559.47C560.84 6.77486 563.237 8.21275 563.511 9.44522H563.58V5.47392H549.265V5.61086C550.566 6.2271 551.045 6.63792 551.114 8.0758V21.9753C551.045 23.4817 550.566 24.0294 549.265 24.6457V24.8511H563.785L564.676 19.9897H564.539ZM509.607 5.47392H497.278C496.867 5.40545 496.456 5.33698 496.388 5.0631L495.497 9.78757L495.566 9.85604C497.141 7.25416 497.552 6.77486 501.867 6.77486V21.4276C501.867 23.961 500.566 24.0294 499.813 24.7142V24.8511H507.141V24.7142C506.319 24.0979 505.087 24.0294 505.087 21.4276V6.77486C509.402 6.77486 509.744 7.25416 511.456 9.85604V9.78757L510.497 5.13157C510.36 5.33698 510.018 5.40545 509.607 5.47392ZM469.059 4.99463C463.237 4.99463 458.58 9.44522 458.58 14.9913C458.58 20.5374 463.237 24.988 469.059 24.988C474.881 24.988 479.539 20.5374 479.539 14.9913C479.607 9.44522 474.881 4.99463 469.059 4.99463ZM469.059 23.7556C465.292 23.7556 462.21 19.7843 462.21 14.9913C462.21 10.1984 465.292 6.36404 469.059 6.36404C472.895 6.36404 475.908 10.2669 475.908 14.9913C475.908 19.7843 472.895 23.7556 469.059 23.7556Z" fill="#A1A6BA"/>
<path d="M227.761 6.50435C227.846 4.96694 227.932 3.48079 228.017 1.99463H216.667V3.61744C216.737 3.62545 216.807 3.63346 216.876 3.64146L217.112 3.66855C217.557 3.71985 218.002 3.77113 218.476 3.82243V18.7523C217.93 18.8377 217.418 18.9231 216.872 19.0256V20.6655H228.273C228.239 19.8798 228.209 19.1025 228.179 18.3253C228.149 17.548 228.119 16.7708 228.085 15.985C227.691 15.9682 227.31 15.9555 226.93 15.943C226.537 15.9299 226.146 15.917 225.747 15.8996C225.712 16.2089 225.677 16.5124 225.643 16.8122C225.559 17.5389 225.478 18.2438 225.406 18.9573H221.924V11.9023H223.409C223.528 12.4148 223.665 12.9273 223.801 13.3885H225.32V8.81045H223.767C223.648 9.32292 223.528 9.80122 223.409 10.2795H221.907V3.63452H225.371C225.397 4.10428 225.423 4.5655 225.448 5.02673C225.474 5.48795 225.499 5.94917 225.525 6.41893C225.902 6.43568 226.266 6.44833 226.628 6.46089C227.004 6.47395 227.378 6.48693 227.761 6.50435Z" fill="#A1A6BA"/>
<path fill-rule="evenodd" clip-rule="evenodd" d="M268.421 26.3895V26.3897C268.409 26.5812 268.397 26.7783 268.382 26.9859H274.031C274.048 26.7713 274.06 26.5647 274.073 26.3603C274.086 26.1416 274.099 25.9255 274.117 25.7047C273.639 25.6022 273.229 25.5168 272.819 25.4314V20.4263C272.905 20.4434 272.956 20.4605 273.007 20.4776C273.792 20.8363 274.612 20.9046 275.465 20.8363C277.121 20.6996 278.315 19.8797 278.981 18.3423C279.186 17.8298 279.339 17.3003 279.442 16.7536C279.732 15.2846 279.715 13.7984 279.595 12.3293C279.544 11.6119 279.39 10.8773 279.186 10.1941C278.708 8.65665 277.769 7.58047 276.062 7.40965C274.697 7.27299 273.502 7.6488 272.581 8.7079C272.572 8.71663 272.563 8.72487 272.554 8.73278C272.551 8.73624 272.547 8.73963 272.543 8.74298L272.537 8.74808C272.526 8.75768 272.515 8.76694 272.504 8.7762C272.478 8.79756 272.453 8.81893 272.427 8.84455C272.329 8.50245 272.24 8.17782 272.148 7.83942L272.147 7.83632C272.11 7.70259 272.073 7.56671 272.034 7.42673C270.737 7.61464 269.491 7.78546 268.245 7.95628V9.2887C268.667 9.36148 269.077 9.42187 269.474 9.48041C269.542 9.49057 269.611 9.50066 269.679 9.51077V25.4314C269.269 25.5339 268.877 25.6193 268.467 25.7047C268.448 25.9295 268.435 26.1543 268.421 26.3875L268.421 26.3885L268.421 26.3895ZM275.789 18.7693C274.782 19.111 273.809 19.0939 272.802 18.6669V10.8261C272.802 10.1428 273.229 9.63034 273.912 9.49369C273.98 9.49369 274.031 9.4766 274.082 9.45952C275.209 9.27161 275.943 9.69867 276.284 10.7749C276.438 11.2702 276.54 11.7998 276.574 12.3123C276.677 13.8497 276.711 15.3871 276.489 16.9074C276.44 17.2612 276.348 17.6149 276.256 17.9687L276.256 17.969L276.234 18.0529L276.217 18.1155L276.213 18.1337L276.201 18.1807L276.192 18.215C276.177 18.2745 276.162 18.334 276.148 18.3935C276.096 18.5814 275.994 18.701 275.789 18.7693Z" fill="#A1A6BA"/>
<path d="M310.607 19.0427C311.085 19.1452 311.512 19.2306 311.938 19.316C311.93 19.5466 311.917 19.7687 311.904 19.9907C311.891 20.2128 311.879 20.4349 311.87 20.6655H307.518C307.518 20.6142 307.514 20.5673 307.509 20.5203C307.505 20.4733 307.501 20.4263 307.501 20.3751C307.501 19.4128 307.503 18.4505 307.505 17.4882C307.508 15.5636 307.512 13.639 307.501 11.7144C307.501 11.3215 307.416 10.9286 307.296 10.5528C307.16 10.1087 306.784 9.85242 306.323 9.74993C305.879 9.64743 305.436 9.6816 305.026 9.85242C304.668 10.0062 304.377 10.2966 304.377 10.7236V18.9231C304.377 18.9418 304.383 18.9554 304.39 18.9752C304.396 18.9914 304.404 19.0118 304.412 19.0427C304.804 19.1281 305.214 19.2135 305.692 19.2989C305.674 19.534 305.66 19.7691 305.647 20.0093L305.647 20.0101L305.647 20.0113C305.635 20.2242 305.622 20.4411 305.606 20.6655H300.008V19.316C300.435 19.2306 300.827 19.1452 301.254 19.0427V9.64743L301.101 9.63039L301.1 9.6303L301.099 9.63024L301.099 9.63018C300.686 9.58449 300.26 9.5373 299.82 9.47661V8.09295C301.032 7.92213 302.244 7.75131 303.507 7.56341C303.585 7.83166 303.656 8.09992 303.724 8.3586L303.725 8.36082L303.726 8.36407C303.761 8.49884 303.796 8.63099 303.831 8.75916C303.92 8.69264 304.01 8.62072 304.103 8.54691L304.103 8.54675C304.296 8.39316 304.5 8.23138 304.719 8.09295C305.931 7.32425 307.245 7.18759 308.593 7.66589C309.72 8.07587 310.317 8.96414 310.505 10.1257C310.556 10.4503 310.573 10.7749 310.573 11.0994V18.5302C310.607 18.7181 310.607 18.8719 310.607 19.0427Z" fill="#A1A6BA"/>
<path d="M234.609 19.2135C234.328 19.1566 234.048 19.0996 233.752 19.0427C233.751 19.0331 233.75 19.0236 233.749 19.0142L233.748 19.0054L233.746 18.9889L233.745 18.9785C233.743 18.9496 233.741 18.9212 233.738 18.8927C233.731 18.794 233.723 18.6953 233.701 18.5815V17.0441C233.701 16.35 233.702 15.6579 233.704 14.9663L233.704 14.9626V14.9588C233.708 13.5764 233.712 12.1965 233.701 10.809C233.701 10.5528 233.786 10.3649 233.939 10.1599C234.349 9.66453 234.912 9.64744 235.458 9.6987C236.227 9.76702 236.67 10.2282 236.79 10.9799C236.841 11.3044 236.875 11.629 236.875 11.9535V20.6484H241.244V19.948C241.244 19.726 241.261 19.5039 241.279 19.2818C241.048 19.2391 240.83 19.1964 240.613 19.1537C240.395 19.111 240.178 19.0683 239.947 19.0256V11.0482C239.947 10.7065 239.93 10.3478 239.862 10.0233C239.606 8.74208 238.872 7.85381 237.575 7.54633C236.09 7.1876 234.725 7.478 233.547 8.48585C233.489 8.53519 233.432 8.5885 233.376 8.64003L233.376 8.64025C233.316 8.69569 233.259 8.74909 233.206 8.79333C233.184 8.71601 233.163 8.63981 233.142 8.56443C233.119 8.48009 233.096 8.39677 233.074 8.31406L233.073 8.313C233.005 8.06164 232.938 7.81576 232.864 7.56342C231.584 7.75132 230.372 7.92214 229.161 8.09296V9.47662C229.638 9.52787 230.116 9.57912 230.577 9.63036C230.68 10.1087 230.645 18.7352 230.56 19.0427L230.56 19.0427C230.167 19.1281 229.775 19.2135 229.365 19.2989C229.356 19.5505 229.343 19.7878 229.329 20.0209C229.317 20.2311 229.305 20.4378 229.297 20.6484H234.946C234.964 20.4178 234.976 20.1956 234.989 19.9735L234.989 19.9733L234.989 19.9707C235.002 19.7496 235.015 19.5285 235.032 19.2989C234.89 19.2705 234.75 19.2421 234.61 19.2138L234.609 19.2135Z" fill="#A1A6BA"/>
<path d="M330.593 9.30577C330.342 9.27883 330.096 9.25662 329.847 9.23416L329.846 9.2341C329.621 9.21385 329.394 9.19339 329.16 9.16911V7.95626C329.787 7.88732 330.415 7.81494 331.046 7.74219L331.047 7.74204L331.05 7.74172L331.053 7.74132L331.062 7.74025C331.833 7.65145 332.607 7.56213 333.392 7.47796C333.416 7.55171 333.44 7.62446 333.464 7.69654C333.612 8.14206 333.751 8.56194 333.751 9.03244C333.739 11.1492 333.743 13.2659 333.747 15.3775V15.3858C333.749 16.4411 333.751 17.4951 333.751 18.5473V19.0597C334.212 19.1451 334.621 19.2306 335.065 19.333C335.039 19.5637 335.018 19.7857 334.997 20.0078C334.975 20.2299 334.954 20.4519 334.928 20.6825H331.293C331.242 20.5204 331.186 20.354 331.129 20.1812L331.129 20.1807C331.071 20.0077 331.011 19.8284 330.952 19.6405C330.832 19.7259 330.747 19.7943 330.662 19.8626C329.177 21.2121 327.18 21.0754 325.917 20.4605C324.927 19.9822 324.398 19.1622 324.227 18.1031C324.159 17.7615 324.142 17.4027 324.142 17.044V9.33993C323.812 9.30579 323.497 9.27165 323.183 9.23752C323.025 9.22041 322.868 9.2033 322.708 9.18619V7.97335C323.724 7.86036 324.74 7.73815 325.776 7.61348C326.15 7.56852 326.527 7.52324 326.907 7.47796C326.943 7.62501 326.988 7.76714 327.033 7.90795L327.033 7.90836L327.034 7.91098C327.133 8.22722 327.231 8.53668 327.231 8.87871V16.3949C327.231 16.7365 327.248 17.0782 327.299 17.4198C327.419 18.3423 328.016 18.8889 328.938 18.906C329.262 18.906 329.586 18.8547 329.911 18.7693C330.252 18.6839 330.696 18.086 330.696 17.7444V9.4595C330.644 9.40825 330.627 9.37409 330.593 9.30577Z" fill="#A1A6BA"/>
<path fill-rule="evenodd" clip-rule="evenodd" d="M262.084 17.7957C261.521 16.9586 261.35 16.0191 261.35 14.96C263.518 14.9258 265.617 14.9088 267.767 14.8917C267.799 14.7903 267.84 14.6889 267.88 14.5874C267.969 14.3643 268.058 14.1411 268.058 13.918C268.058 12.9443 267.955 11.9706 267.682 11.014C267.409 10.0745 267.016 9.22039 266.317 8.5371C265.122 7.39258 263.688 7.20467 262.152 7.52924C260.531 7.87088 259.473 8.87874 258.79 10.3478C258.363 11.2532 258.158 12.1927 258.073 13.1835C257.936 14.7892 258.09 16.3608 258.79 17.8469C259.421 19.1964 260.377 20.2043 261.845 20.6313C263.603 21.1438 265.258 20.8534 266.829 19.9993C266.993 19.9226 267.136 19.8178 267.281 19.7119C267.361 19.6527 267.443 19.5932 267.528 19.5381C267.341 19.111 267.17 18.7181 266.999 18.3252L266.999 18.3253L266.997 18.3258C266.845 18.3768 266.743 18.4108 266.641 18.4619C265.856 18.7864 265.054 18.9573 264.2 18.9402C263.296 18.9231 262.596 18.5302 262.084 17.7957ZM265.205 12.8128C265.216 12.9564 265.227 13.1068 265.241 13.2689C263.91 13.3372 262.63 13.3884 261.35 13.4397C261.347 13.4198 261.343 13.4012 261.338 13.3834C261.336 13.3724 261.333 13.3617 261.33 13.3513C261.328 13.3436 261.326 13.3361 261.324 13.3287C261.311 13.2792 261.299 13.2343 261.299 13.1835C261.35 12.056 261.555 10.9628 261.981 9.90368C262.118 9.59619 262.323 9.40829 262.647 9.3058C263.466 9.04956 264.098 9.27163 264.525 10.0232C264.917 10.7065 265.071 11.4582 265.156 12.2269C265.176 12.4175 265.19 12.6081 265.205 12.8126V12.8128Z" fill="#A1A6BA"/>
<path fill-rule="evenodd" clip-rule="evenodd" d="M318.963 14.9166L318.96 14.9166C317.875 14.9296 316.797 14.9426 315.71 14.96C315.659 15.4212 315.727 15.8483 315.813 16.2754C315.932 16.9245 316.171 17.5224 316.615 18.0348C317.11 18.6156 317.724 18.906 318.475 18.9231C319.295 18.9573 320.08 18.8035 320.848 18.496C321.001 18.4277 321.155 18.3765 321.36 18.3081L321.361 18.3102L321.361 18.3111C321.531 18.703 321.702 19.095 321.889 19.5381C321.876 19.5478 321.863 19.5569 321.85 19.5657C321.839 19.5731 321.828 19.5802 321.817 19.5873C321.807 19.5937 321.796 19.6001 321.786 19.6064C321.768 19.6176 321.75 19.6289 321.733 19.6407C321.716 19.6514 321.7 19.6626 321.684 19.6747C320.319 20.6313 318.782 21.0071 317.161 20.8192C315.147 20.5972 313.799 19.4185 313.065 17.5736C312.126 15.1992 312.16 12.7906 313.133 10.4161C313.765 8.89582 314.857 7.85381 316.512 7.49507C317.81 7.22176 319.056 7.30717 320.182 8.07587C320.984 8.62251 321.479 9.42536 321.821 10.3136C322.264 11.4582 322.435 12.6539 322.401 13.8667C322.389 14.1106 322.307 14.3458 322.224 14.5847L322.224 14.5855C322.21 14.6255 322.196 14.6655 322.182 14.7056C322.174 14.7283 322.167 14.7511 322.159 14.7739C322.154 14.79 322.149 14.8062 322.144 14.8223C322.138 14.8397 322.133 14.8571 322.128 14.8746C321.057 14.8913 320.007 14.904 318.963 14.9166ZM319.568 13.2689C319.533 12.3806 319.431 11.5436 319.175 10.7407C319.038 10.3307 318.851 9.972 318.578 9.63035C318.066 8.98123 316.512 9.10081 316.274 10.0062C316.218 10.2175 316.157 10.4288 316.096 10.641C315.948 11.1492 315.8 11.6625 315.727 12.1927C315.719 12.2618 315.709 12.3304 315.7 12.399C315.652 12.7371 315.605 13.0733 315.676 13.4568C316.36 13.4208 317.034 13.3895 317.713 13.358C318.323 13.3297 318.938 13.3012 319.568 13.2689Z" fill="#A1A6BA"/>
<path fill-rule="evenodd" clip-rule="evenodd" d="M296.109 14.9169C297.163 14.9043 298.221 14.8915 299.291 14.8747C299.322 14.7764 299.361 14.6765 299.4 14.576C299.49 14.3448 299.581 14.1101 299.581 13.8839C299.581 12.5857 299.411 11.3216 298.899 10.1258C298.506 9.20337 297.943 8.41759 297.038 7.9222C295.673 7.17059 294.239 7.23891 292.84 7.78555C291.645 8.26385 290.86 9.18629 290.331 10.3308C289.87 11.3045 289.665 12.3465 289.597 13.4227C289.477 15.0113 289.682 16.5658 290.416 18.0178C291.133 19.4356 292.242 20.4264 293.83 20.7339C295.519 21.0755 297.141 20.751 298.609 19.8285C298.685 19.7773 298.758 19.7218 298.83 19.6663L298.831 19.6661C298.903 19.6106 298.976 19.5552 299.052 19.504C298.94 19.2481 298.833 19.0045 298.73 18.7658C298.66 18.6061 298.592 18.4486 298.523 18.2911C298.42 18.3379 298.328 18.3745 298.24 18.4092L298.239 18.4093C298.167 18.4379 298.098 18.4653 298.028 18.4961C297.243 18.8207 296.441 18.9573 295.605 18.9232C294.871 18.9061 294.256 18.5986 293.795 18.0349C293.062 17.1637 292.891 16.1217 292.874 14.9601C293.954 14.9428 295.029 14.9299 296.109 14.9169ZM296.722 12.9184C296.73 13.0319 296.739 13.1484 296.748 13.269C296.047 13.3049 295.36 13.3362 294.667 13.3677L294.664 13.3678C294.043 13.3961 293.416 13.4246 292.771 13.4569C292.785 13.2992 292.796 13.1552 292.806 13.0184L292.807 13.0173C292.822 12.8137 292.836 12.6258 292.857 12.4319C292.976 11.5266 293.164 10.6383 293.539 9.80125C293.642 9.57918 293.796 9.44253 294.017 9.35711C294.888 9.01547 295.588 9.23754 296.048 10.0575C296.407 10.6895 296.56 11.3899 296.646 12.0903C296.683 12.36 296.702 12.6297 296.722 12.9184Z" fill="#A1A6BA"/>
<path d="M252.902 7.56351C252.953 7.76003 253 7.95228 253.047 8.14453C253.094 8.33663 253.141 8.52873 253.192 8.7251C253.269 8.68239 253.345 8.63541 253.422 8.58844L253.422 8.58832C253.499 8.54139 253.576 8.49445 253.653 8.45179C254.557 7.92224 255.53 7.68309 256.571 7.56351C257.066 7.51227 257.424 7.66601 257.715 8.09307C257.623 8.96055 257.521 9.84827 257.416 10.7562L257.416 10.7577C257.385 11.0292 257.354 11.3026 257.322 11.5778C256.965 11.5608 256.62 11.548 256.275 11.5352L256.27 11.535H256.269C255.924 11.5223 255.58 11.5095 255.223 11.4924C255.137 10.8604 255.069 10.2454 255.001 9.63047C254.489 9.66462 254.062 9.81837 253.67 10.0917V19.0599C253.965 19.1309 254.253 19.1937 254.555 19.2597C254.689 19.289 254.825 19.3188 254.967 19.3503C254.958 19.5666 254.946 19.7748 254.934 19.9848C254.92 20.2059 254.907 20.429 254.898 20.6656H249.317V19.3673C249.71 19.2649 250.102 19.1623 250.478 19.0769V9.66462C250.33 9.64813 250.185 9.63164 250.041 9.61514C249.962 9.60601 249.883 9.59689 249.804 9.58776C249.644 9.5693 249.484 9.55083 249.321 9.53238L249.13 9.51089V8.12722C250.1 7.96537 251.081 7.82481 252.089 7.68032L252.104 7.67823C252.368 7.64042 252.634 7.60233 252.902 7.56351Z" fill="#A1A6BA"/>
<path d="M335.901 19.3502C335.867 19.7772 335.85 20.2043 335.833 20.6655C337.728 20.6655 339.571 20.6655 341.482 20.6143C341.499 20.3921 341.512 20.1741 341.525 19.9562C341.538 19.7385 341.551 19.5209 341.568 19.2989C341.396 19.2608 341.23 19.2227 341.067 19.1854C340.792 19.1225 340.528 19.0622 340.271 19.0085V9.97203C340.697 9.81828 341.124 9.66455 341.585 9.51081C341.616 9.76392 341.646 10.0077 341.674 10.2464L341.675 10.2481C341.723 10.6532 341.77 11.0438 341.824 11.4411C342.174 11.4582 342.519 11.471 342.865 11.4838C343.21 11.4966 343.556 11.5094 343.906 11.5265C343.941 11.2164 343.977 10.9087 344.012 10.6035C344.112 9.73179 344.21 8.88124 344.299 8.05882C343.991 7.59759 343.599 7.44386 343.104 7.54635C342.936 7.58094 342.768 7.61124 342.601 7.64139L342.601 7.64149C342.19 7.71552 341.785 7.78866 341.397 7.92216C341.022 8.04737 340.662 8.22567 340.307 8.40147L340.306 8.40172C340.128 8.48967 339.952 8.57699 339.776 8.65669C339.734 8.49692 339.692 8.32474 339.648 8.14422C339.602 7.958 339.555 7.76292 339.503 7.56343C338.24 7.75134 336.994 7.92216 335.696 8.09298V9.47664C336.114 9.53428 336.495 9.57977 336.86 9.62335C336.928 9.63143 336.995 9.63944 337.062 9.64746V19.0598C336.923 19.0945 336.79 19.1273 336.66 19.1595C336.405 19.2222 336.161 19.2824 335.901 19.3502Z" fill="#A1A6BA"/>
<path d="M285.68 9.84705L285.678 9.84774C285.5 9.91355 285.328 9.97695 285.159 10.0404V19.0598C285.38 19.1107 285.596 19.1574 285.812 19.204L285.821 19.2059C286.037 19.2526 286.253 19.2993 286.474 19.3502C286.465 19.4653 286.456 19.5793 286.447 19.6928C286.436 19.8377 286.424 19.9818 286.413 20.1262C286.399 20.3047 286.385 20.4837 286.371 20.6655H280.79V19.3673L281.968 19.0598V9.64746C281.833 9.63249 281.7 9.61752 281.567 9.60256C281.473 9.5919 281.379 9.58125 281.285 9.57059L281.271 9.56896C281.049 9.54389 280.828 9.5188 280.602 9.49372V8.11006C281.848 7.93924 283.077 7.76842 284.391 7.5805C284.442 7.76835 284.498 7.9562 284.553 8.14405C284.609 8.33201 284.664 8.51998 284.716 8.70794C284.867 8.63223 285.013 8.55376 285.157 8.47585L285.158 8.47573C285.372 8.36032 285.584 8.24618 285.808 8.14423C286.491 7.81966 287.242 7.70008 287.993 7.5805C288.488 7.51218 288.88 7.63176 289.204 8.09297C289.165 8.4608 289.123 8.83425 289.081 9.21332L289.08 9.22057L289.08 9.22135C288.996 9.98405 288.908 10.7695 288.829 11.5778C288.485 11.5694 288.145 11.5568 287.804 11.5443C287.45 11.5312 287.094 11.5181 286.73 11.5094C286.674 11.0773 286.626 10.6739 286.576 10.2526C286.548 10.0245 286.521 9.79098 286.491 9.54496C286.2 9.6551 285.934 9.75349 285.68 9.84705Z" fill="#A1A6BA"/>
<path d="M245.75 7.7342V5.08645C245.311 5.10689 244.89 5.12734 244.469 5.14779C244.187 5.16151 243.905 5.17523 243.617 5.18894C243.476 5.68067 243.33 6.1724 243.185 6.66068C243.083 7.00354 242.981 7.34471 242.883 7.68295C242.608 7.69915 242.344 7.71151 242.085 7.72367C241.797 7.73716 241.514 7.7504 241.227 7.76836C241.218 8.07745 241.204 8.36719 241.191 8.65045C241.179 8.89945 241.167 9.14344 241.159 9.39118C241.381 9.42824 241.594 9.4621 241.804 9.49552C242.077 9.53911 242.347 9.58198 242.627 9.63032C242.644 9.78407 242.661 9.93781 242.661 10.0915V17.7786C242.661 18.0348 242.661 18.291 242.695 18.5473C242.832 19.7772 243.634 20.5971 244.846 20.8021C245.648 20.9388 246.433 20.8875 247.218 20.7338C247.576 20.6654 247.935 20.5971 248.276 20.3751C248.248 20.1299 248.225 19.8847 248.201 19.6337C248.182 19.4301 248.163 19.2227 248.14 19.0085C247.976 19.0085 247.819 19.0105 247.666 19.0124C247.37 19.0162 247.089 19.0197 246.808 19.0085C246.279 18.9914 245.904 18.6498 245.836 18.1202C245.818 17.9494 245.818 17.7786 245.818 17.6077C245.801 15.0625 245.801 12.5172 245.801 9.97197C245.801 9.86583 245.815 9.77314 245.83 9.67001L245.836 9.63032C246.213 9.58431 246.58 9.54325 246.95 9.50182C247.267 9.46634 247.587 9.43058 247.918 9.39118C247.931 9.25428 247.943 9.11845 247.956 8.98262C247.995 8.57609 248.033 8.16954 248.071 7.7342H245.75Z" fill="#A1A6BA"/>
<path d="M0 1.99475H11.8517V13.8835H0V1.99475Z" fill="#A1A6BA"/>
<path d="M13.0618 1.99475H24.9136V13.8835H13.0618V1.99475Z" fill="#A1A6BA"/>
<path d="M110.609 6.07905C109.378 5.74344 107.968 5.80773 106.872 6.52177C106.175 6.97878 105.662 7.69993 105.434 8.48537C105.246 9.10583 105.254 9.747 105.262 10.3873L105.264 10.5219L105.265 10.6269C105.266 10.8276 105.266 11.0279 105.256 11.2273C104.658 11.2273 104.068 11.2201 103.477 11.2344C103.481 11.6942 103.48 12.1508 103.478 12.6063V12.6139C103.478 12.8421 103.477 13.0701 103.477 13.298C103.594 13.2994 103.711 13.3 103.827 13.3001C103.967 13.3003 104.106 13.2998 104.245 13.2993L104.483 13.2986L104.661 13.2985L104.785 13.2988C104.945 13.2995 105.104 13.3013 105.263 13.3051C105.259 15.228 105.26 17.1541 105.262 19.0811L105.263 20.054C105.263 20.6939 105.263 21.3337 105.263 21.9735H107.826V13.298H111.577C111.577 13.912 111.576 14.5261 111.576 15.1401C111.574 16.3683 111.572 17.5964 111.577 18.8246C111.591 19.6886 111.734 20.6026 112.303 21.2809C112.794 21.8807 113.57 22.1521 114.325 22.2092C115.115 22.2663 115.934 22.1735 116.667 21.8521V19.7457C116.104 20.1242 115.328 20.2741 114.716 19.9314C114.346 19.7243 114.211 19.2959 114.161 18.9032C114.109 18.4653 114.114 18.021 114.118 17.5768C114.119 17.4917 114.12 17.4067 114.121 17.3218C114.121 17.2704 114.121 17.219 114.121 17.1677C114.121 17.082 114.12 16.9965 114.118 16.911C114.118 16.5112 114.119 16.1113 114.12 15.7114L114.121 15.1412C114.121 14.9415 114.122 14.7418 114.122 14.5421L114.121 14.214L114.121 13.8574C114.12 13.6757 114.119 13.4939 114.118 13.3122C114.424 13.3148 114.729 13.3128 115.033 13.3108C115.579 13.3071 116.123 13.3036 116.667 13.3265V11.2415C116.438 11.2435 116.209 11.2438 115.979 11.2436L115.583 11.2429H115.583C115.1 11.2417 114.616 11.2405 114.133 11.2487C114.125 10.6324 114.126 10.0185 114.127 9.4056C114.128 8.94615 114.129 8.48725 114.126 8.02836C113.877 8.1045 113.627 8.1819 113.377 8.25951C112.784 8.44374 112.188 8.62873 111.591 8.79957C111.578 9.30825 111.579 9.81694 111.579 10.3256L111.579 10.6969C111.579 10.8784 111.579 11.06 111.577 11.2415H107.826C107.83 11.1217 107.831 11.0015 107.831 10.8812C107.83 10.774 107.829 10.6667 107.827 10.5594C107.822 10.142 107.816 9.72482 107.876 9.31362C107.954 8.8138 108.239 8.30686 108.73 8.11406C109.342 7.85703 110.033 8.02836 110.616 8.28545C110.611 7.74951 110.613 7.21356 110.612 6.67762C110.612 6.47812 110.611 6.27855 110.609 6.07905Z" fill="#A1A6BA"/>
<path d="M51.9982 6.67169C52.5178 6.5931 53.073 6.77161 53.4147 7.17863C53.8133 7.62134 53.8916 8.3282 53.5927 8.8495C53.2652 9.43495 52.5249 9.70634 51.8843 9.56354C51.2223 9.44214 50.6671 8.82091 50.6956 8.12828C50.6742 7.40713 51.2864 6.75732 51.9982 6.67169Z" fill="#A1A6BA"/>
<path d="M36.082 6.99301H32.352C32.352 11.9913 32.352 16.9895 32.3592 21.9806H34.8007V15.2686C34.8033 14.6819 34.8021 14.0942 34.8009 13.5062C34.7989 12.4771 34.7968 11.4473 34.8149 10.4204C34.8321 10.4491 34.8493 10.479 34.8664 10.5095C34.892 10.555 34.9175 10.6019 34.9431 10.6489C35.3864 11.7533 35.8291 12.8583 36.2719 13.9636L36.2781 13.9793C37.3477 16.649 38.4179 19.3202 39.4987 21.9878C39.7804 21.9813 40.0606 21.9822 40.34 21.983C40.6749 21.9841 41.0086 21.9851 41.3423 21.9735C42.1486 19.9065 42.9656 17.8437 43.7827 15.7806L43.7939 15.7526C44.4662 14.0549 45.1387 12.3569 45.8054 10.656L45.8262 10.6147C45.837 10.5937 45.8479 10.5732 45.8589 10.5528C45.8847 10.5053 45.9114 10.4593 45.9406 10.4132C45.9477 10.5846 45.9549 10.7488 45.9549 10.913C45.9513 12.7588 45.9513 14.6046 45.9513 16.4495C45.9513 18.2944 45.9513 20.1384 45.9477 21.9806C46.5905 21.9913 47.2333 21.9899 47.8761 21.9886H47.8872C48.102 21.9882 48.3168 21.9878 48.5316 21.9878V6.99301C48.1897 6.99301 47.8478 6.99182 47.5059 6.99063C46.6519 6.98771 45.798 6.98485 44.9441 7.00012C44.0319 9.26795 43.1117 11.5305 42.1917 13.7925L41.3062 15.9705C41.0213 16.6718 40.7366 17.3732 40.4525 18.0749C40.2707 17.6379 40.0989 17.1986 39.9268 16.7582C39.8091 16.4571 39.6912 16.1557 39.5699 15.8542L37.8244 11.4197C37.243 9.94468 36.6616 8.46975 36.082 6.99301Z" fill="#A1A6BA"/>
<path d="M59.0523 11.2272C60.2909 10.8702 61.6219 10.8845 62.8605 11.2415C63.1168 11.3129 63.3588 11.4129 63.5937 11.5485C63.5855 12.0181 63.5867 12.4877 63.5879 12.956C63.5887 13.3065 63.5896 13.6563 63.5866 14.0049C62.7609 13.3693 61.7145 12.9695 60.661 13.1051C59.8282 13.1837 59.0309 13.6121 58.5327 14.2905C57.892 15.1259 57.7425 16.2398 57.8564 17.268C57.9419 18.0677 58.2693 18.8746 58.8886 19.4029C59.5363 19.9814 60.4403 20.1813 61.2874 20.117C62.1202 20.0171 62.9103 19.6672 63.5866 19.1673C63.5908 19.6328 63.59 20.0956 63.5901 20.559C63.5903 20.8705 63.5908 21.1822 63.5937 21.4951C62.5473 22.1235 61.2874 22.2805 60.0915 22.2234C58.8672 22.1592 57.6429 21.695 56.7531 20.8239C55.7851 19.8885 55.2654 18.5604 55.2014 17.2251C55.1373 15.8399 55.422 14.3904 56.2121 13.2337C56.8741 12.2555 57.9134 11.5557 59.0523 11.2272Z" fill="#A1A6BA"/>
<path d="M90.5928 11.4414C89.4753 11.013 88.2296 10.8631 87.048 11.0702C86.0443 11.2487 85.062 11.7699 84.4997 12.6411C84.0014 13.3836 83.9374 14.3476 84.1438 15.2044C84.2862 15.7828 84.6349 16.2969 85.1047 16.6611C85.6259 17.0602 86.231 17.3221 86.833 17.5828C86.9138 17.6178 86.9945 17.6527 87.0751 17.688C87.1565 17.7237 87.2378 17.7597 87.3185 17.7964L87.3882 17.83C87.7663 18.0121 88.1612 18.2023 88.436 18.5319C88.7492 18.9888 88.6496 19.7386 88.13 19.9956C87.5819 20.2598 86.9412 20.2527 86.3575 20.1599C85.5105 20.0171 84.7204 19.6529 84.0299 19.153C84.0258 19.3905 84.0241 19.6279 84.0235 19.8653C84.0233 19.9544 84.0233 20.0433 84.0233 20.1324C84.0234 20.2792 84.0237 20.4261 84.0241 20.5729C84.025 20.9279 84.0258 21.2829 84.0228 21.6379C84.8414 22.0021 85.7383 22.1806 86.628 22.2377C87.8808 22.2877 89.2475 22.0378 90.1942 21.1523C91.1908 20.2741 91.4257 18.7104 90.8633 17.5322C90.5644 16.9038 89.9878 16.4683 89.397 16.1327C89.0533 15.931 88.6859 15.7782 88.3191 15.6257L88.3181 15.6253C87.8801 15.4432 87.443 15.2615 87.048 14.9974C86.6209 14.726 86.507 14.1334 86.6778 13.6835C86.8985 13.2265 87.4253 13.0266 87.9022 13.0052C88.8489 12.9766 89.8098 13.2622 90.5928 13.8049V11.4414Z" fill="#A1A6BA"/>
<path d="M69.3167 11.4057C70.0213 10.9773 70.9254 10.9416 71.6941 11.2058C71.6894 11.777 71.6909 12.3483 71.6925 12.9195C71.6933 13.2051 71.6941 13.4907 71.6941 13.7764C71.1887 13.4479 70.5552 13.305 69.9644 13.3693C69.2384 13.455 68.6618 14.012 68.3628 14.6546C68.0354 15.3329 67.9784 16.1041 67.9998 16.8467V21.9878H65.4728V11.2486C66.3116 11.2343 67.1575 11.2415 67.9964 11.2486H67.9998C67.995 11.658 67.9966 12.0674 67.9982 12.4768C67.999 12.6815 67.9998 12.8862 67.9998 13.0908C68.2703 12.4197 68.676 11.7699 69.3167 11.4057Z" fill="#A1A6BA"/>
<path d="M51.6577 11.2392H51.6569C51.4947 11.2399 51.3327 11.2407 51.1708 11.2412L50.9305 11.2415V21.9878H53.4716C53.4752 20.1991 53.4752 18.4087 53.4752 16.6182C53.4752 14.8277 53.4752 13.0374 53.4788 11.2486C52.8736 11.2334 52.2649 11.2362 51.6577 11.2392Z" fill="#A1A6BA"/>
<path fill-rule="evenodd" clip-rule="evenodd" d="M80.0793 11.4843C78.9404 10.963 77.6449 10.8916 76.4135 11.0487C75.1251 11.2058 73.8652 11.8199 73.0466 12.8624C72.2992 13.7835 71.9361 14.9688 71.865 16.147C71.7653 17.5322 71.9931 19.0031 72.8046 20.1598C73.495 21.1594 74.5841 21.845 75.7657 22.0949C76.7551 22.3019 77.7873 22.3019 78.7696 22.0949C79.9156 21.8593 80.9976 21.2166 81.7094 20.2741C82.4069 19.3886 82.7558 18.2676 82.834 17.1466C82.9123 15.997 82.7984 14.8117 82.3215 13.7549C81.8731 12.7624 81.0687 11.9342 80.0793 11.4843ZM79.3248 13.8121C78.7696 13.2551 77.951 13.0338 77.1822 13.0837C76.5701 13.1194 75.9508 13.3265 75.481 13.7549C74.8546 14.3262 74.5698 15.1687 74.4916 15.997C74.4061 16.9038 74.4702 17.8607 74.8831 18.6889C75.2034 19.3315 75.7942 19.8314 76.4917 20.0171C77.1751 20.1956 77.9225 20.1813 78.5845 19.9242C79.154 19.7029 79.6024 19.2316 79.8444 18.6818C80.2146 17.8607 80.2502 16.9395 80.2074 16.0542C80.1434 15.2473 79.9156 14.3976 79.3248 13.8121Z" fill="#A1A6BA"/>
<path fill-rule="evenodd" clip-rule="evenodd" d="M96.8497 11.0415C98.131 10.8845 99.4834 10.9701 100.651 11.5628C101.669 12.0698 102.459 12.998 102.85 14.062C103.156 14.8759 103.263 15.7614 103.249 16.6253C103.249 17.9249 102.9 19.253 102.089 20.2883C101.327 21.288 100.167 21.9306 98.9354 22.1377C97.7324 22.3305 96.4654 22.2805 95.3264 21.8307C94.1733 21.3737 93.2123 20.4454 92.7212 19.2958C92.2158 18.1248 92.1589 16.811 92.3155 15.5614C92.4792 14.3119 93.0486 13.0908 94.0096 12.2626C94.7997 11.57 95.8176 11.1772 96.8497 11.0415ZM97.5402 13.0909C98.2662 13.0409 99.035 13.2051 99.5902 13.6978C100.103 14.1263 100.387 14.7618 100.516 15.4115C100.665 16.1684 100.658 16.9467 100.537 17.7107C100.437 18.2748 100.245 18.8389 99.8749 19.2887C99.5048 19.7386 98.9496 20.0099 98.3801 20.0956C97.768 20.1885 97.1202 20.1456 96.5437 19.8957C95.9244 19.6314 95.4474 19.0959 95.1912 18.4748C94.8851 17.7393 94.8282 16.9181 94.8851 16.1327C94.9421 15.3687 95.1556 14.5833 95.661 13.9906C96.1237 13.4336 96.8284 13.1266 97.5402 13.0909Z" fill="#A1A6BA"/>
<path d="M0 15.0973H11.8517V26.986H0V15.0973Z" fill="#A1A6BA"/>
<path d="M24.9136 15.0973H13.0618V26.986H24.9136V15.0973Z" fill="#A1A6BA"/>
</svg>
